<svg width="671" height="251" viewBox="0 0 671 251" fill="none" xmlns="http://www.w3.org/2000/svg">
<path d="M188.2 153.58C192.316 153.58 195.452 155.54 196.824 157.696C197.804 158.872 198 160.244 197.608 161.42C193.296 171.024 180.164 185.136 161.74 185.136C148.216 185.136 135.672 179.452 126.264 169.26C116.268 158.088 111.172 142.996 111.172 125.16C111.172 105.364 116.464 84.98 126.068 69.496C135.868 53.228 148.608 44.212 161.74 44.212C179.184 44.212 192.708 57.148 192.708 73.612C192.708 78.512 192.512 81.452 188.004 81.452C181.928 81.452 178.204 77.924 178.204 74.592C178.204 64.4 172.324 57.932 168.012 57.932C162.328 57.932 154.096 66.164 147.824 78.512C143.12 87.136 135.476 105.756 135.476 131.236C135.476 154.168 145.472 171.416 158.8 171.416C168.796 171.416 178.008 162.008 181.536 157.108C183.3 154.56 185.456 153.58 188.2 153.58ZM292.471 129.08C293.451 129.864 293.843 130.844 293.843 131.628C293.843 132.412 293.451 133 292.667 133.392C287.375 137.9 276.203 143.192 262.875 143.584C259.543 159.068 249.351 170.828 237.591 170.828C229.751 170.828 222.303 167.692 217.011 162.204C210.543 155.54 207.211 145.74 207.211 133.98C207.211 123.004 208.779 115.752 212.111 112.42C213.483 111.048 215.835 110.46 218.579 110.264C218.971 103.6 223.479 91.644 236.219 91.644C244.843 91.644 251.703 94.78 256.211 100.856C261.111 107.324 263.855 117.712 263.855 131.628C268.951 131.04 273.851 129.276 277.771 127.904C280.711 126.728 283.063 125.944 284.435 125.944C288.159 125.944 291.099 127.512 292.471 129.08ZM234.259 158.48C236.415 158.48 243.667 152.992 246.999 142.212C240.531 140.84 234.259 138.292 229.359 134.568C229.163 136.136 228.771 139.468 228.771 142.408C228.771 154.56 233.083 158.48 234.259 158.48ZM248.959 130.844C248.959 130.452 248.959 129.864 248.959 129.472C248.959 114.184 244.647 106.736 242.099 104.776C239.355 106.54 237.395 114.576 237.395 117.516C237.395 124.572 240.923 128.884 248.959 130.844ZM414.159 129.668C414.943 130.648 415.139 131.824 414.943 133C414.747 133.196 402.595 169.456 385.935 169.456C372.803 169.456 365.159 157.108 365.159 135.548C365.159 131.432 365.355 126.336 365.355 121.436C365.551 117.124 365.551 113.204 365.551 110.264C358.887 117.712 352.811 130.256 347.715 147.504C347.715 148.092 347.519 148.484 347.519 148.68C346.539 151.228 344.971 154.364 340.267 154.364C333.211 154.364 329.291 149.464 329.291 140.84C329.291 130.648 328.311 112.616 327.723 108.304C317.727 121.632 309.495 140.84 304.987 162.792C304.987 163.184 304.791 163.576 304.791 163.772C304.791 168.672 304.399 172.396 298.323 172.396C294.991 172.396 290.679 171.416 286.955 163.968C285.779 161.224 281.859 144.76 281.859 125.748C281.859 114.576 282.251 100.856 283.623 95.76C284.407 92.624 287.739 90.664 292.247 90.664C298.127 90.664 302.439 93.408 304.595 96.152C305.967 97.916 306.555 99.876 306.359 101.444C305.379 104.972 304.595 113.792 304.203 118.3C312.827 100.66 321.059 91.644 329.095 91.644C333.799 91.644 337.719 93.212 341.051 96.74C344.775 100.268 346.147 106.344 346.539 111.244C349.283 106.344 358.691 93.8 367.707 93.8C379.075 93.8 384.563 102.62 384.563 120.848C384.563 124.768 384.367 127.12 384.367 129.668C384.171 132.216 383.975 134.96 383.975 139.468C383.975 147.896 385.151 152.6 385.543 154.952C390.639 150.248 398.087 134.764 400.439 129.472C401.027 128.492 401.223 127.904 401.419 127.708C402.007 126.532 403.183 126.14 405.143 126.14C408.867 126.14 412.591 127.512 414.159 129.668ZM494.793 124.964C498.125 127.12 500.477 132.02 499.889 134.176C499.693 134.764 499.301 135.156 498.517 135.156C497.929 135.156 496.753 134.96 495.773 134.96C494.793 134.96 494.009 134.764 493.421 134.764C485.777 134.764 478.133 135.548 470.881 137.116C465.197 158.676 448.733 172.984 436.973 172.984C429.917 172.984 422.665 167.104 422.665 157.108C422.665 156.128 422.861 155.148 422.861 154.364C423.841 147.896 427.565 142.996 430.701 139.86C436.189 134.176 445.205 130.256 455.005 127.904C455.789 124.18 456.181 120.064 456.181 115.36C456.181 107.128 454.613 103.208 453.241 103.208C439.521 103.208 426.977 128.884 422.861 154.364C422.665 155.736 422.469 157.108 422.273 158.676C422.273 158.872 422.273 158.872 422.273 159.068C422.273 161.616 422.469 163.38 422.469 163.968C422.469 168.672 420.509 171.024 416.197 171.024C408.945 171.024 406.005 165.928 405.025 161.812C402.869 153.972 400.909 130.648 400.909 116.536C400.909 80.668 403.457 55.188 404.045 50.484C404.437 45.584 410.513 45.192 412.473 45.192C420.705 45.192 425.409 50.876 425.409 54.992C425.409 55.58 425.213 57.344 424.821 60.284C423.645 69.104 421.293 88.508 420.901 111.44C425.605 100.66 436.581 89.684 448.145 89.684C460.101 89.684 472.841 99.68 472.841 121.632C472.841 122.612 472.841 123.592 472.645 124.768C477.937 124.18 483.033 123.984 487.737 123.984C491.265 123.984 493.813 124.18 494.793 124.964ZM437.169 157.108C439.913 154.952 444.225 151.228 448.145 145.152C442.853 148.484 438.737 152.404 437.169 157.108ZM572.881 129.08C573.861 129.864 574.253 130.844 574.253 131.628C574.253 132.412 573.861 133 573.077 133.392C567.785 137.9 556.613 143.192 543.285 143.584C539.953 159.068 529.761 170.828 518.001 170.828C510.161 170.828 502.713 167.692 497.421 162.204C490.953 155.54 487.621 145.74 487.621 133.98C487.621 123.004 489.189 115.752 492.521 112.42C493.893 111.048 496.245 110.46 498.989 110.264C499.381 103.6 503.889 91.644 516.629 91.644C525.253 91.644 532.113 94.78 536.621 100.856C541.521 107.324 544.265 117.712 544.265 131.628C549.361 131.04 554.261 129.276 558.181 127.904C561.121 126.728 563.473 125.944 564.845 125.944C568.569 125.944 571.509 127.512 572.881 129.08ZM514.669 158.48C516.825 158.48 524.077 152.992 527.409 142.212C520.941 140.84 514.669 138.292 509.769 134.568C509.573 136.136 509.181 139.468 509.181 142.408C509.181 154.56 513.493 158.48 514.669 158.48ZM529.369 130.844C529.369 130.452 529.369 129.864 529.369 129.472C529.369 114.184 525.057 106.736 522.509 104.776C519.765 106.54 517.805 114.576 517.805 117.516C517.805 124.572 521.333 128.884 529.369 130.844Z" fill="#E5E5E5"/>
<path d="M59.3961 187.916C61.5041 189.28 62.9921 192.38 62.6201 193.744C62.4961 194.116 62.2481 194.364 61.7521 194.364C61.3801 194.364 60.6361 194.24 60.0161 194.24C59.3961 194.24 58.9001 194.116 58.5281 194.116C53.6921 194.116 48.8561 194.612 44.2681 195.604C40.6721 209.244 30.2561 218.296 22.8161 218.296C18.3521 218.296 13.7641 214.576 13.7641 208.252C13.7641 207.632 13.8881 207.012 13.8881 206.516C14.5081 202.424 16.8641 199.324 18.8481 197.34C22.3201 193.744 28.0241 191.264 34.2241 189.776C34.7201 187.42 34.9681 184.816 34.9681 181.84C34.9681 176.632 33.9761 174.152 33.1081 174.152C24.4281 174.152 16.4921 190.396 13.8881 206.516C13.7641 207.384 13.6401 208.252 13.5161 209.244C13.5161 209.368 13.5161 209.368 13.5161 209.492C13.5161 211.104 13.6401 212.22 13.6401 212.592C13.6401 215.568 12.4001 217.056 9.67207 217.056C5.08407 217.056 3.22407 213.832 2.60407 211.228C1.24007 206.268 7.03093e-05 191.512 7.03093e-05 182.584C7.03093e-05 159.892 1.61207 143.772 1.98407 140.796C2.23207 137.696 6.07607 137.448 7.31607 137.448C12.5241 137.448 15.5001 141.044 15.5001 143.648C15.5001 144.02 15.3761 145.136 15.1281 146.996C14.3841 152.576 12.8961 164.852 12.6481 179.36C15.6241 172.54 22.5681 165.596 29.8841 165.596C37.4481 165.596 45.5081 171.92 45.5081 185.808C45.5081 186.428 45.5081 187.048 45.3841 187.792C48.7321 187.42 51.9561 187.296 54.9321 187.296C57.1641 187.296 58.7761 187.42 59.3961 187.916ZM22.9401 208.252C24.6761 206.888 27.4041 204.532 29.8841 200.688C26.5361 202.796 23.9321 205.276 22.9401 208.252ZM91.6864 191.264C92.0584 191.76 92.0584 192.256 91.9344 192.628L91.8104 193C86.1064 209.12 79.5344 217.304 72.0944 217.304C67.5064 217.304 63.4144 214.824 60.4384 210.36C56.5944 204.532 54.7344 195.356 54.7344 183.204C54.7344 164.976 56.8424 146.376 57.0904 144.392C57.4624 142.408 59.5704 141.168 62.5464 141.168C67.6304 141.168 71.1024 144.392 71.1024 147.492C71.1024 147.988 70.9784 149.724 70.7304 152.204C70.1104 159.52 68.7464 174.896 68.7464 188.908C68.7464 202.176 70.1104 206.64 71.4744 209.244C74.8224 206.392 78.7904 199.82 82.6344 190.768C82.7584 190.52 82.7584 190.396 82.7584 190.272C83.2544 189.156 84.2464 188.66 85.7344 188.66C88.4624 188.66 90.8184 190.024 91.6864 191.264ZM137.636 189.28C139.496 189.9 141.356 190.892 141.108 191.884C139.62 197.34 132.8 212.096 124.12 212.096C120.524 212.096 117.052 210.856 114.82 208.624C112.712 206.516 111.348 203.788 110.48 199.944C106.14 209.74 101.924 213.956 96.3442 213.956C89.2762 213.956 82.2082 207.26 82.2082 194.488C82.2082 186.924 84.3162 179.732 88.4082 174.4C92.3762 168.944 97.8322 165.968 103.66 165.968C108.124 165.968 111.1 167.704 112.216 168.448C113.084 167.58 114.2 167.208 115.688 167.208C119.284 167.208 122.632 169.688 122.632 172.416C122.632 172.664 122.508 173.408 122.384 174.772C121.764 178.74 120.648 186.924 120.648 193C120.648 201.68 122.012 204.408 122.632 205.772C122.632 205.896 122.756 205.896 122.756 206.02C125.608 203.54 129.7 198.828 133.296 189.776L133.42 189.528C133.792 188.536 135.9 188.784 137.636 189.28ZM108.496 178.244C108.868 177.376 109.116 176.384 109.364 175.516C108.744 174.772 107.876 174.028 107.504 174.028C103.908 174.028 95.3522 184.816 95.3522 199.448C95.3522 201.68 95.7242 204.036 96.0962 205.152C102.42 197.836 105.768 187.048 108.496 178.244ZM184.787 190.024C186.027 190.892 186.647 191.884 186.151 192.752C185.407 194.364 182.183 200.068 177.223 205.524C170.155 213.088 162.715 216.932 154.903 216.932C144.115 216.932 132.955 208.128 132.955 193.372C132.955 179.98 140.395 166.216 152.919 166.216C160.855 166.216 166.435 171.424 166.435 178.864C166.435 181.22 165.567 181.716 164.203 181.716C160.731 181.716 158.127 179.856 158.127 178.616C158.127 176.632 157.011 175.144 156.763 174.896C154.531 175.02 147.711 183.948 147.711 196.472C147.711 204.408 150.687 208.624 153.415 208.624C163.459 208.624 173.627 195.604 177.471 190.024C177.595 189.776 177.719 189.652 177.719 189.652C179.083 188.04 182.679 188.784 184.787 190.024ZM228.848 191.636C229.22 192.132 229.344 192.752 229.096 193.372C225.5 202.92 219.424 215.568 208.76 215.568C200.824 215.568 194.624 209.492 191.4 205.524C191.524 207.26 191.648 208.624 191.772 209.864C191.772 211.476 191.896 212.468 191.896 212.964C191.896 215.94 190.656 217.428 187.928 217.428C183.34 217.428 181.48 214.204 180.86 211.6C179.496 206.64 178.256 191.884 178.256 182.956C178.256 160.264 179.868 144.144 180.24 141.168C180.488 138.068 184.332 137.82 185.572 137.82C190.78 137.82 193.756 141.416 193.756 144.02C193.756 144.392 193.632 145.508 193.384 147.368C192.64 153.444 190.78 167.952 190.78 184.32C190.78 185.436 190.78 186.552 190.78 187.668C194.5 184.32 198.84 177.996 203.304 169.812L203.552 169.564C204.172 168.448 205.164 167.952 206.9 167.952C209.008 167.952 211.612 169.192 212.604 170.804C212.976 171.424 213.1 171.92 212.852 172.54C208.264 181.964 200.7 191.636 194.996 195.356C195.244 195.728 195.616 196.348 195.988 196.968C198.096 200.316 202.436 207.012 207.272 208.872C211.364 208.252 215.952 201.804 220.54 190.768L220.664 190.52C221.16 189.28 222.028 189.156 223.02 189.156C225.376 189.156 227.856 190.272 228.848 191.636ZM315.657 191.016C316.029 191.512 316.153 192.008 316.029 192.504C315.161 194.86 310.077 208.128 305.365 212.716C303.257 214.824 300.529 216.064 298.049 216.064C292.841 216.064 284.037 213.336 284.037 194.612C284.037 190.272 284.037 179.484 283.913 177.004C277.961 183.948 272.877 195.728 269.281 211.104C269.281 211.848 269.281 212.468 269.281 212.84C269.281 215.816 267.793 217.428 264.941 217.428C260.725 217.428 258.369 214.08 257.501 211.352C256.881 208.996 255.393 199.2 255.393 188.908C255.393 180.6 256.137 170.308 256.509 168.324C256.757 166.216 259.237 164.976 261.593 164.976C265.065 164.976 270.645 166.712 270.645 171.3C270.645 171.92 270.397 173.656 270.149 176.136C269.901 177.748 269.777 179.608 269.529 181.468C272.505 175.392 277.961 166.216 284.781 166.216C287.385 166.216 290.361 167.456 292.097 169.192C295.445 172.54 296.933 177.996 296.933 187.172C296.933 189.776 296.809 192.504 296.809 194.984C296.685 197.092 296.685 198.952 296.685 200.44C296.685 203.664 297.057 206.888 297.429 208.128C299.289 206.392 302.513 201.928 307.721 190.024C307.845 189.776 307.969 189.652 307.969 189.528C308.217 189.032 308.961 188.66 310.077 188.66C311.689 188.66 314.665 189.652 315.657 191.016ZM361.279 190.52C361.899 191.016 362.147 191.636 362.147 192.132C362.147 192.628 361.899 193 361.403 193.248C358.055 196.1 350.987 199.448 342.555 199.696C340.447 209.492 333.999 216.932 326.559 216.932C321.599 216.932 316.887 214.948 313.539 211.476C309.447 207.26 307.339 201.06 307.339 193.62C307.339 186.676 308.331 182.088 310.439 179.98C311.307 179.112 312.795 178.74 314.531 178.616C314.779 174.4 317.631 166.836 325.691 166.836C331.147 166.836 335.487 168.82 338.339 172.664C341.439 176.756 343.175 183.328 343.175 192.132C346.399 191.76 349.499 190.644 351.979 189.776C353.839 189.032 355.327 188.536 356.195 188.536C358.551 188.536 360.411 189.528 361.279 190.52ZM324.451 209.12C325.815 209.12 330.403 205.648 332.511 198.828C328.419 197.96 324.451 196.348 321.351 193.992C321.227 194.984 320.979 197.092 320.979 198.952C320.979 206.64 323.707 209.12 324.451 209.12ZM333.751 191.636C333.751 191.388 333.751 191.016 333.751 190.768C333.751 181.096 331.023 176.384 329.411 175.144C327.675 176.26 326.435 181.344 326.435 183.204C326.435 187.668 328.667 190.396 333.751 191.636ZM414.581 188.536C414.829 189.032 414.581 189.528 413.961 189.776L413.837 189.9C411.233 191.14 404.413 194.116 397.593 194.116C396.601 194.116 395.609 193.992 394.617 193.868C392.633 200.564 389.533 207.26 385.689 211.104C383.085 213.708 379.737 215.196 376.265 215.196C369.941 215.196 364.113 211.228 359.897 204.036C355.557 196.844 353.325 186.552 353.325 175.268C353.325 172.416 353.573 170.06 353.697 168.572C353.945 166.96 355.929 165.224 358.905 165.224C364.361 165.224 367.709 168.572 367.709 171.672C367.709 172.292 367.585 173.036 367.585 173.78C367.461 175.02 367.461 176.384 367.461 177.996C367.461 193.496 372.049 206.144 374.653 207.384C379.241 205.524 382.713 198.084 384.945 190.892C384.077 190.396 383.209 189.9 382.341 189.28C378.869 186.8 374.653 182.088 374.653 174.4C374.653 167.332 378.001 160.388 384.325 160.388C390.649 160.388 397.345 166.712 397.345 178.616C397.345 180.972 396.973 183.948 396.353 187.296C398.833 187.296 402.057 186.552 404.537 186.056C406.397 185.56 407.885 185.312 408.753 185.312C411.481 185.312 414.333 187.048 414.581 188.536ZM386.805 182.832C387.177 180.6 387.425 178.74 387.425 177.5C387.425 174.4 386.681 171.796 386.185 170.432C385.689 171.796 385.069 174.772 385.069 176.632C385.069 179.236 385.689 181.344 386.805 182.832ZM455.705 189.28C457.317 190.024 458.929 191.14 458.557 192.504C458.185 193.992 455.457 200.068 451.117 205.648C447.149 210.856 440.453 216.932 431.897 216.932C420.365 216.932 408.089 207.756 408.089 190.892C408.089 177.624 416.645 166.34 426.937 166.34C434.005 166.34 440.453 172.54 440.453 179.236C440.453 188.66 433.385 196.596 425.077 196.596C424.333 196.596 423.589 196.472 423.217 196.472C423.589 203.664 426.565 208.996 430.161 208.996C438.221 208.996 447.273 195.604 450.125 189.528C450.869 188.164 453.473 188.412 455.705 189.28ZM429.789 175.64C429.169 175.64 424.829 180.476 423.589 189.528C426.565 188.536 430.533 184.196 430.533 178.616C430.533 176.632 429.913 175.764 429.789 175.64ZM533.445 190.892C533.941 191.512 534.065 192.256 533.941 193C533.817 193.124 526.129 216.064 515.589 216.064C507.281 216.064 502.445 208.252 502.445 194.612C502.445 192.008 502.569 188.784 502.569 185.684C502.693 182.956 502.693 180.476 502.693 178.616C498.477 183.328 494.633 191.264 491.409 202.176C491.409 202.548 491.285 202.796 491.285 202.92C490.665 204.532 489.673 206.516 486.697 206.516C482.233 206.516 479.753 203.416 479.753 197.96C479.753 191.512 479.133 180.104 478.761 177.376C472.437 185.808 467.229 197.96 464.377 211.848C464.377 212.096 464.253 212.344 464.253 212.468C464.253 215.568 464.005 217.924 460.161 217.924C458.053 217.924 455.325 217.304 452.969 212.592C452.225 210.856 449.745 200.44 449.745 188.412C449.745 181.344 449.993 172.664 450.861 169.44C451.357 167.456 453.465 166.216 456.317 166.216C460.037 166.216 462.765 167.952 464.129 169.688C464.997 170.804 465.369 172.044 465.245 173.036C464.625 175.268 464.129 180.848 463.881 183.7C469.337 172.54 474.545 166.836 479.629 166.836C482.605 166.836 485.085 167.828 487.193 170.06C489.549 172.292 490.417 176.136 490.665 179.236C492.401 176.136 498.353 168.2 504.057 168.2C511.249 168.2 514.721 173.78 514.721 185.312C514.721 187.792 514.597 189.28 514.597 190.892C514.473 192.504 514.349 194.24 514.349 197.092C514.349 202.424 515.093 205.4 515.341 206.888C518.565 203.912 523.277 194.116 524.765 190.768C525.137 190.148 525.261 189.776 525.385 189.652C525.757 188.908 526.501 188.66 527.741 188.66C530.097 188.66 532.453 189.528 533.445 190.892ZM584.459 187.916C586.567 189.28 588.055 192.38 587.683 193.744C587.559 194.116 587.311 194.364 586.815 194.364C586.443 194.364 585.699 194.24 585.079 194.24C584.459 194.24 583.963 194.116 583.591 194.116C578.755 194.116 573.919 194.612 569.331 195.604C565.735 209.244 555.319 218.296 547.879 218.296C543.415 218.296 538.827 214.576 538.827 208.252C538.827 207.632 538.951 207.012 538.951 206.516C539.571 202.424 541.927 199.324 543.911 197.34C547.383 193.744 553.087 191.264 559.287 189.776C559.783 187.42 560.031 184.816 560.031 181.84C560.031 176.632 559.039 174.152 558.171 174.152C549.491 174.152 541.555 190.396 538.951 206.516C538.827 207.384 538.703 208.252 538.579 209.244C538.579 209.368 538.579 209.368 538.579 209.492C538.579 211.104 538.703 212.22 538.703 212.592C538.703 215.568 537.463 217.056 534.735 217.056C530.147 217.056 528.287 213.832 527.667 211.228C526.303 206.268 525.063 191.512 525.063 182.584C525.063 159.892 526.675 143.772 527.047 140.796C527.295 137.696 531.139 137.448 532.379 137.448C537.587 137.448 540.563 141.044 540.563 143.648C540.563 144.02 540.439 145.136 540.191 146.996C539.447 152.576 537.959 164.852 537.711 179.36C540.687 172.54 547.631 165.596 554.947 165.596C562.511 165.596 570.571 171.92 570.571 185.808C570.571 186.428 570.571 187.048 570.447 187.792C573.795 187.42 577.019 187.296 579.995 187.296C582.227 187.296 583.839 187.42 584.459 187.916ZM548.003 208.252C549.739 206.888 552.467 204.532 554.947 200.688C551.599 202.796 548.995 205.276 548.003 208.252ZM627.537 189.28C629.149 190.024 630.761 191.14 630.389 192.504C630.017 193.992 627.289 200.068 622.949 205.648C618.981 210.856 612.285 216.932 603.729 216.932C592.197 216.932 579.921 207.756 579.921 190.892C579.921 177.624 588.477 166.34 598.769 166.34C605.837 166.34 612.285 172.54 612.285 179.236C612.285 188.66 605.217 196.596 596.909 196.596C596.165 196.596 595.421 196.472 595.049 196.472C595.421 203.664 598.397 208.996 601.993 208.996C610.053 208.996 619.105 195.604 621.957 189.528C622.701 188.164 625.305 188.412 627.537 189.28ZM601.621 175.64C601.001 175.64 596.661 180.476 595.421 189.528C598.397 188.536 602.365 184.196 602.365 178.616C602.365 176.632 601.745 175.764 601.621 175.64ZM664.729 187.544C667.829 187.544 670.805 189.404 670.805 190.768C670.805 192.38 666.465 193.62 662.993 193.62C651.709 193.62 648.113 185.312 647.121 181.22C641.293 189.28 637.945 206.888 636.829 212.716C636.829 213.336 636.705 213.708 636.581 213.956C636.581 213.956 636.581 213.956 636.581 214.08C636.581 214.204 636.705 214.328 636.705 214.452C636.705 217.304 635.217 218.792 632.489 218.792C628.397 218.792 625.793 215.444 624.801 212.468C623.809 209.492 621.453 198.952 621.453 184.94C621.453 179.856 621.825 170.804 623.065 168.076C623.685 166.464 625.173 164.604 628.645 164.604C631.869 164.604 634.969 165.968 636.581 168.076C637.573 169.316 638.069 170.68 637.697 172.044C637.325 173.656 636.829 176.508 636.457 179.732C639.805 173.656 643.525 170.556 647.493 170.556C651.213 170.556 652.825 172.292 653.817 173.16C655.677 175.02 656.421 177.996 657.165 180.848C657.909 183.452 658.529 185.808 659.893 187.296C660.265 187.668 661.009 188.04 661.753 188.04C662.249 188.04 662.745 187.916 663.241 187.792C663.737 187.668 664.233 187.544 664.729 187.544Z" fill="#FF5D00"/>
</svg>
