<svg width="689" height="251" viewBox="0 0 689 251" fill="none" xmlns="http://www.w3.org/2000/svg">
<g filter="url(#filter0_i_31_2)">
<path d="M206.2 153.58C210.316 153.58 213.452 155.54 214.824 157.696C215.804 158.872 216 160.244 215.608 161.42C211.296 171.024 198.164 185.136 179.74 185.136C166.216 185.136 153.672 179.452 144.264 169.26C134.268 158.088 129.172 142.996 129.172 125.16C129.172 105.364 134.464 84.98 144.068 69.496C153.868 53.228 166.608 44.212 179.74 44.212C197.184 44.212 210.708 57.148 210.708 73.612C210.708 78.512 210.512 81.452 206.004 81.452C199.928 81.452 196.204 77.924 196.204 74.592C196.204 64.4 190.324 57.932 186.012 57.932C180.328 57.932 172.096 66.164 165.824 78.512C161.12 87.136 153.476 105.756 153.476 131.236C153.476 154.168 163.472 171.416 176.8 171.416C186.796 171.416 196.008 162.008 199.536 157.108C201.3 154.56 203.456 153.58 206.2 153.58ZM310.471 129.08C311.451 129.864 311.843 130.844 311.843 131.628C311.843 132.412 311.451 133 310.667 133.392C305.375 137.9 294.203 143.192 280.875 143.584C277.543 159.068 267.351 170.828 255.591 170.828C247.751 170.828 240.303 167.692 235.011 162.204C228.543 155.54 225.211 145.74 225.211 133.98C225.211 123.004 226.779 115.752 230.111 112.42C231.483 111.048 233.835 110.46 236.579 110.264C236.971 103.6 241.479 91.644 254.219 91.644C262.843 91.644 269.703 94.78 274.211 100.856C279.111 107.324 281.855 117.712 281.855 131.628C286.951 131.04 291.851 129.276 295.771 127.904C298.711 126.728 301.063 125.944 302.435 125.944C306.159 125.944 309.099 127.512 310.471 129.08ZM252.259 158.48C254.415 158.48 261.667 152.992 264.999 142.212C258.531 140.84 252.259 138.292 247.359 134.568C247.163 136.136 246.771 139.468 246.771 142.408C246.771 154.56 251.083 158.48 252.259 158.48ZM266.959 130.844C266.959 130.452 266.959 129.864 266.959 129.472C266.959 114.184 262.647 106.736 260.099 104.776C257.355 106.54 255.395 114.576 255.395 117.516C255.395 124.572 258.923 128.884 266.959 130.844ZM432.159 129.668C432.943 130.648 433.139 131.824 432.943 133C432.747 133.196 420.595 169.456 403.935 169.456C390.803 169.456 383.159 157.108 383.159 135.548C383.159 131.432 383.355 126.336 383.355 121.436C383.551 117.124 383.551 113.204 383.551 110.264C376.887 117.712 370.811 130.256 365.715 147.504C365.715 148.092 365.519 148.484 365.519 148.68C364.539 151.228 362.971 154.364 358.267 154.364C351.211 154.364 347.291 149.464 347.291 140.84C347.291 130.648 346.311 112.616 345.723 108.304C335.727 121.632 327.495 140.84 322.987 162.792C322.987 163.184 322.791 163.576 322.791 163.772C322.791 168.672 322.399 172.396 316.323 172.396C312.991 172.396 308.679 171.416 304.955 163.968C303.779 161.224 299.859 144.76 299.859 125.748C299.859 114.576 300.251 100.856 301.623 95.76C302.407 92.624 305.739 90.664 310.247 90.664C316.127 90.664 320.439 93.408 322.595 96.152C323.967 97.916 324.555 99.876 324.359 101.444C323.379 104.972 322.595 113.792 322.203 118.3C330.827 100.66 339.059 91.644 347.095 91.644C351.799 91.644 355.719 93.212 359.051 96.74C362.775 100.268 364.147 106.344 364.539 111.244C367.283 106.344 376.691 93.8 385.707 93.8C397.075 93.8 402.563 102.62 402.563 120.848C402.563 124.768 402.367 127.12 402.367 129.668C402.171 132.216 401.975 134.96 401.975 139.468C401.975 147.896 403.151 152.6 403.543 154.952C408.639 150.248 416.087 134.764 418.439 129.472C419.027 128.492 419.223 127.904 419.419 127.708C420.007 126.532 421.183 126.14 423.143 126.14C426.867 126.14 430.591 127.512 432.159 129.668ZM512.793 124.964C516.125 127.12 518.477 132.02 517.889 134.176C517.693 134.764 517.301 135.156 516.517 135.156C515.929 135.156 514.753 134.96 513.773 134.96C512.793 134.96 512.009 134.764 511.421 134.764C503.777 134.764 496.133 135.548 488.881 137.116C483.197 158.676 466.733 172.984 454.973 172.984C447.917 172.984 440.665 167.104 440.665 157.108C440.665 156.128 440.861 155.148 440.861 154.364C441.841 147.896 445.565 142.996 448.701 139.86C454.189 134.176 463.205 130.256 473.005 127.904C473.789 124.18 474.181 120.064 474.181 115.36C474.181 107.128 472.613 103.208 471.241 103.208C457.521 103.208 444.977 128.884 440.861 154.364C440.665 155.736 440.469 157.108 440.273 158.676C440.273 158.872 440.273 158.872 440.273 159.068C440.273 161.616 440.469 163.38 440.469 163.968C440.469 168.672 438.509 171.024 434.197 171.024C426.945 171.024 424.005 165.928 423.025 161.812C420.869 153.972 418.909 130.648 418.909 116.536C418.909 80.668 421.457 55.188 422.045 50.484C422.437 45.584 428.513 45.192 430.473 45.192C438.705 45.192 443.409 50.876 443.409 54.992C443.409 55.58 443.213 57.344 442.821 60.284C441.645 69.104 439.293 88.508 438.901 111.44C443.605 100.66 454.581 89.684 466.145 89.684C478.101 89.684 490.841 99.68 490.841 121.632C490.841 122.612 490.841 123.592 490.645 124.768C495.937 124.18 501.033 123.984 505.737 123.984C509.265 123.984 511.813 124.18 512.793 124.964ZM455.169 157.108C457.913 154.952 462.225 151.228 466.145 145.152C460.853 148.484 456.737 152.404 455.169 157.108ZM590.881 129.08C591.861 129.864 592.253 130.844 592.253 131.628C592.253 132.412 591.861 133 591.077 133.392C585.785 137.9 574.613 143.192 561.285 143.584C557.953 159.068 547.761 170.828 536.001 170.828C528.161 170.828 520.713 167.692 515.421 162.204C508.953 155.54 505.621 145.74 505.621 133.98C505.621 123.004 507.189 115.752 510.521 112.42C511.893 111.048 514.245 110.46 516.989 110.264C517.381 103.6 521.889 91.644 534.629 91.644C543.253 91.644 550.113 94.78 554.621 100.856C559.521 107.324 562.265 117.712 562.265 131.628C567.361 131.04 572.261 129.276 576.181 127.904C579.121 126.728 581.473 125.944 582.845 125.944C586.569 125.944 589.509 127.512 590.881 129.08ZM532.669 158.48C534.825 158.48 542.077 152.992 545.409 142.212C538.941 140.84 532.669 138.292 527.769 134.568C527.573 136.136 527.181 139.468 527.181 142.408C527.181 154.56 531.493 158.48 532.669 158.48ZM547.369 130.844C547.369 130.452 547.369 129.864 547.369 129.472C547.369 114.184 543.057 106.736 540.509 104.776C537.765 106.54 535.805 114.576 535.805 117.516C535.805 124.572 539.333 128.884 547.369 130.844Z" fill="#E5E5E5"/>
</g>
<g filter="url(#filter1_d_31_2)">
<path d="M77.3961 187.916C79.5041 189.28 80.9921 192.38 80.6201 193.744C80.4961 194.116 80.2481 194.364 79.7521 194.364C79.3801 194.364 78.6361 194.24 78.0161 194.24C77.3961 194.24 76.9001 194.116 76.5281 194.116C71.6921 194.116 66.8561 194.612 62.2681 195.604C58.6721 209.244 48.2561 218.296 40.8161 218.296C36.3521 218.296 31.7641 214.576 31.7641 208.252C31.7641 207.632 31.8881 207.012 31.8881 206.516C32.5081 202.424 34.8641 199.324 36.8481 197.34C40.3201 193.744 46.0241 191.264 52.2241 189.776C52.7201 187.42 52.9681 184.816 52.9681 181.84C52.9681 176.632 51.9761 174.152 51.1081 174.152C42.4281 174.152 34.4921 190.396 31.8881 206.516C31.7641 207.384 31.6401 208.252 31.5161 209.244C31.5161 209.368 31.5161 209.368 31.5161 209.492C31.5161 211.104 31.6401 212.22 31.6401 212.592C31.6401 215.568 30.4001 217.056 27.6721 217.056C23.0841 217.056 21.2241 213.832 20.6041 211.228C19.2401 206.268 18.0001 191.512 18.0001 182.584C18.0001 159.892 19.6121 143.772 19.9841 140.796C20.2321 137.696 24.0761 137.448 25.3161 137.448C30.5241 137.448 33.5001 141.044 33.5001 143.648C33.5001 144.02 33.3761 145.136 33.1281 146.996C32.3841 152.576 30.8961 164.852 30.6481 179.36C33.6241 172.54 40.5681 165.596 47.8841 165.596C55.4481 165.596 63.5081 171.92 63.5081 185.808C63.5081 186.428 63.5081 187.048 63.3841 187.792C66.7321 187.42 69.9561 187.296 72.9321 187.296C75.1641 187.296 76.7761 187.42 77.3961 187.916ZM40.9401 208.252C42.6761 206.888 45.4041 204.532 47.8841 200.688C44.5361 202.796 41.9321 205.276 40.9401 208.252ZM109.686 191.264C110.058 191.76 110.058 192.256 109.934 192.628L109.81 193C104.106 209.12 97.5344 217.304 90.0944 217.304C85.5064 217.304 81.4144 214.824 78.4384 210.36C74.5944 204.532 72.7344 195.356 72.7344 183.204C72.7344 164.976 74.8424 146.376 75.0904 144.392C75.4624 142.408 77.5704 141.168 80.5464 141.168C85.6304 141.168 89.1024 144.392 89.1024 147.492C89.1024 147.988 88.9784 149.724 88.7304 152.204C88.1104 159.52 86.7464 174.896 86.7464 188.908C86.7464 202.176 88.1104 206.64 89.4744 209.244C92.8224 206.392 96.7904 199.82 100.634 190.768C100.758 190.52 100.758 190.396 100.758 190.272C101.254 189.156 102.246 188.66 103.734 188.66C106.462 188.66 108.818 190.024 109.686 191.264ZM155.636 189.28C157.496 189.9 159.356 190.892 159.108 191.884C157.62 197.34 150.8 212.096 142.12 212.096C138.524 212.096 135.052 210.856 132.82 208.624C130.712 206.516 129.348 203.788 128.48 199.944C124.14 209.74 119.924 213.956 114.344 213.956C107.276 213.956 100.208 207.26 100.208 194.488C100.208 186.924 102.316 179.732 106.408 174.4C110.376 168.944 115.832 165.968 121.66 165.968C126.124 165.968 129.1 167.704 130.216 168.448C131.084 167.58 132.2 167.208 133.688 167.208C137.284 167.208 140.632 169.688 140.632 172.416C140.632 172.664 140.508 173.408 140.384 174.772C139.764 178.74 138.648 186.924 138.648 193C138.648 201.68 140.012 204.408 140.632 205.772C140.632 205.896 140.756 205.896 140.756 206.02C143.608 203.54 147.7 198.828 151.296 189.776L151.42 189.528C151.792 188.536 153.9 188.784 155.636 189.28ZM126.496 178.244C126.868 177.376 127.116 176.384 127.364 175.516C126.744 174.772 125.876 174.028 125.504 174.028C121.908 174.028 113.352 184.816 113.352 199.448C113.352 201.68 113.724 204.036 114.096 205.152C120.42 197.836 123.768 187.048 126.496 178.244ZM202.787 190.024C204.027 190.892 204.647 191.884 204.151 192.752C203.407 194.364 200.183 200.068 195.223 205.524C188.155 213.088 180.715 216.932 172.903 216.932C162.115 216.932 150.955 208.128 150.955 193.372C150.955 179.98 158.395 166.216 170.919 166.216C178.855 166.216 184.435 171.424 184.435 178.864C184.435 181.22 183.567 181.716 182.203 181.716C178.731 181.716 176.127 179.856 176.127 178.616C176.127 176.632 175.011 175.144 174.763 174.896C172.531 175.02 165.711 183.948 165.711 196.472C165.711 204.408 168.687 208.624 171.415 208.624C181.459 208.624 191.627 195.604 195.471 190.024C195.595 189.776 195.719 189.652 195.719 189.652C197.083 188.04 200.679 188.784 202.787 190.024ZM246.848 191.636C247.22 192.132 247.344 192.752 247.096 193.372C243.5 202.92 237.424 215.568 226.76 215.568C218.824 215.568 212.624 209.492 209.4 205.524C209.524 207.26 209.648 208.624 209.772 209.864C209.772 211.476 209.896 212.468 209.896 212.964C209.896 215.94 208.656 217.428 205.928 217.428C201.34 217.428 199.48 214.204 198.86 211.6C197.496 206.64 196.256 191.884 196.256 182.956C196.256 160.264 197.868 144.144 198.24 141.168C198.488 138.068 202.332 137.82 203.572 137.82C208.78 137.82 211.756 141.416 211.756 144.02C211.756 144.392 211.632 145.508 211.384 147.368C210.64 153.444 208.78 167.952 208.78 184.32C208.78 185.436 208.78 186.552 208.78 187.668C212.5 184.32 216.84 177.996 221.304 169.812L221.552 169.564C222.172 168.448 223.164 167.952 224.9 167.952C227.008 167.952 229.612 169.192 230.604 170.804C230.976 171.424 231.1 171.92 230.852 172.54C226.264 181.964 218.7 191.636 212.996 195.356C213.244 195.728 213.616 196.348 213.988 196.968C216.096 200.316 220.436 207.012 225.272 208.872C229.364 208.252 233.952 201.804 238.54 190.768L238.664 190.52C239.16 189.28 240.028 189.156 241.02 189.156C243.376 189.156 245.856 190.272 246.848 191.636ZM333.657 191.016C334.029 191.512 334.153 192.008 334.029 192.504C333.161 194.86 328.077 208.128 323.365 212.716C321.257 214.824 318.529 216.064 316.049 216.064C310.841 216.064 302.037 213.336 302.037 194.612C302.037 190.272 302.037 179.484 301.913 177.004C295.961 183.948 290.877 195.728 287.281 211.104C287.281 211.848 287.281 212.468 287.281 212.84C287.281 215.816 285.793 217.428 282.941 217.428C278.725 217.428 276.369 214.08 275.501 211.352C274.881 208.996 273.393 199.2 273.393 188.908C273.393 180.6 274.137 170.308 274.509 168.324C274.757 166.216 277.237 164.976 279.593 164.976C283.065 164.976 288.645 166.712 288.645 171.3C288.645 171.92 288.397 173.656 288.149 176.136C287.901 177.748 287.777 179.608 287.529 181.468C290.505 175.392 295.961 166.216 302.781 166.216C305.385 166.216 308.361 167.456 310.097 169.192C313.445 172.54 314.933 177.996 314.933 187.172C314.933 189.776 314.809 192.504 314.809 194.984C314.685 197.092 314.685 198.952 314.685 200.44C314.685 203.664 315.057 206.888 315.429 208.128C317.289 206.392 320.513 201.928 325.721 190.024C325.845 189.776 325.969 189.652 325.969 189.528C326.217 189.032 326.961 188.66 328.077 188.66C329.689 188.66 332.665 189.652 333.657 191.016ZM379.279 190.52C379.899 191.016 380.147 191.636 380.147 192.132C380.147 192.628 379.899 193 379.403 193.248C376.055 196.1 368.987 199.448 360.555 199.696C358.447 209.492 351.999 216.932 344.559 216.932C339.599 216.932 334.887 214.948 331.539 211.476C327.447 207.26 325.339 201.06 325.339 193.62C325.339 186.676 326.331 182.088 328.439 179.98C329.307 179.112 330.795 178.74 332.531 178.616C332.779 174.4 335.631 166.836 343.691 166.836C349.147 166.836 353.487 168.82 356.339 172.664C359.439 176.756 361.175 183.328 361.175 192.132C364.399 191.76 367.499 190.644 369.979 189.776C371.839 189.032 373.327 188.536 374.195 188.536C376.551 188.536 378.411 189.528 379.279 190.52ZM342.451 209.12C343.815 209.12 348.403 205.648 350.511 198.828C346.419 197.96 342.451 196.348 339.351 193.992C339.227 194.984 338.979 197.092 338.979 198.952C338.979 206.64 341.707 209.12 342.451 209.12ZM351.751 191.636C351.751 191.388 351.751 191.016 351.751 190.768C351.751 181.096 349.023 176.384 347.411 175.144C345.675 176.26 344.435 181.344 344.435 183.204C344.435 187.668 346.667 190.396 351.751 191.636ZM432.581 188.536C432.829 189.032 432.581 189.528 431.961 189.776L431.837 189.9C429.233 191.14 422.413 194.116 415.593 194.116C414.601 194.116 413.609 193.992 412.617 193.868C410.633 200.564 407.533 207.26 403.689 211.104C401.085 213.708 397.737 215.196 394.265 215.196C387.941 215.196 382.113 211.228 377.897 204.036C373.557 196.844 371.325 186.552 371.325 175.268C371.325 172.416 371.573 170.06 371.697 168.572C371.945 166.96 373.929 165.224 376.905 165.224C382.361 165.224 385.709 168.572 385.709 171.672C385.709 172.292 385.585 173.036 385.585 173.78C385.461 175.02 385.461 176.384 385.461 177.996C385.461 193.496 390.049 206.144 392.653 207.384C397.241 205.524 400.713 198.084 402.945 190.892C402.077 190.396 401.209 189.9 400.341 189.28C396.869 186.8 392.653 182.088 392.653 174.4C392.653 167.332 396.001 160.388 402.325 160.388C408.649 160.388 415.345 166.712 415.345 178.616C415.345 180.972 414.973 183.948 414.353 187.296C416.833 187.296 420.057 186.552 422.537 186.056C424.397 185.56 425.885 185.312 426.753 185.312C429.481 185.312 432.333 187.048 432.581 188.536ZM404.805 182.832C405.177 180.6 405.425 178.74 405.425 177.5C405.425 174.4 404.681 171.796 404.185 170.432C403.689 171.796 403.069 174.772 403.069 176.632C403.069 179.236 403.689 181.344 404.805 182.832ZM473.705 189.28C475.317 190.024 476.929 191.14 476.557 192.504C476.185 193.992 473.457 200.068 469.117 205.648C465.149 210.856 458.453 216.932 449.897 216.932C438.365 216.932 426.089 207.756 426.089 190.892C426.089 177.624 434.645 166.34 444.937 166.34C452.005 166.34 458.453 172.54 458.453 179.236C458.453 188.66 451.385 196.596 443.077 196.596C442.333 196.596 441.589 196.472 441.217 196.472C441.589 203.664 444.565 208.996 448.161 208.996C456.221 208.996 465.273 195.604 468.125 189.528C468.869 188.164 471.473 188.412 473.705 189.28ZM447.789 175.64C447.169 175.64 442.829 180.476 441.589 189.528C444.565 188.536 448.533 184.196 448.533 178.616C448.533 176.632 447.913 175.764 447.789 175.64ZM551.445 190.892C551.941 191.512 552.065 192.256 551.941 193C551.817 193.124 544.129 216.064 533.589 216.064C525.281 216.064 520.445 208.252 520.445 194.612C520.445 192.008 520.569 188.784 520.569 185.684C520.693 182.956 520.693 180.476 520.693 178.616C516.477 183.328 512.633 191.264 509.409 202.176C509.409 202.548 509.285 202.796 509.285 202.92C508.665 204.532 507.673 206.516 504.697 206.516C500.233 206.516 497.753 203.416 497.753 197.96C497.753 191.512 497.133 180.104 496.761 177.376C490.437 185.808 485.229 197.96 482.377 211.848C482.377 212.096 482.253 212.344 482.253 212.468C482.253 215.568 482.005 217.924 478.161 217.924C476.053 217.924 473.325 217.304 470.969 212.592C470.225 210.856 467.745 200.44 467.745 188.412C467.745 181.344 467.993 172.664 468.861 169.44C469.357 167.456 471.465 166.216 474.317 166.216C478.037 166.216 480.765 167.952 482.129 169.688C482.997 170.804 483.369 172.044 483.245 173.036C482.625 175.268 482.129 180.848 481.881 183.7C487.337 172.54 492.545 166.836 497.629 166.836C500.605 166.836 503.085 167.828 505.193 170.06C507.549 172.292 508.417 176.136 508.665 179.236C510.401 176.136 516.353 168.2 522.057 168.2C529.249 168.2 532.721 173.78 532.721 185.312C532.721 187.792 532.597 189.28 532.597 190.892C532.473 192.504 532.349 194.24 532.349 197.092C532.349 202.424 533.093 205.4 533.341 206.888C536.565 203.912 541.277 194.116 542.765 190.768C543.137 190.148 543.261 189.776 543.385 189.652C543.757 188.908 544.501 188.66 545.741 188.66C548.097 188.66 550.453 189.528 551.445 190.892ZM602.459 187.916C604.567 189.28 606.055 192.38 605.683 193.744C605.559 194.116 605.311 194.364 604.815 194.364C604.443 194.364 603.699 194.24 603.079 194.24C602.459 194.24 601.963 194.116 601.591 194.116C596.755 194.116 591.919 194.612 587.331 195.604C583.735 209.244 573.319 218.296 565.879 218.296C561.415 218.296 556.827 214.576 556.827 208.252C556.827 207.632 556.951 207.012 556.951 206.516C557.571 202.424 559.927 199.324 561.911 197.34C565.383 193.744 571.087 191.264 577.287 189.776C577.783 187.42 578.031 184.816 578.031 181.84C578.031 176.632 577.039 174.152 576.171 174.152C567.491 174.152 559.555 190.396 556.951 206.516C556.827 207.384 556.703 208.252 556.579 209.244C556.579 209.368 556.579 209.368 556.579 209.492C556.579 211.104 556.703 212.22 556.703 212.592C556.703 215.568 555.463 217.056 552.735 217.056C548.147 217.056 546.287 213.832 545.667 211.228C544.303 206.268 543.063 191.512 543.063 182.584C543.063 159.892 544.675 143.772 545.047 140.796C545.295 137.696 549.139 137.448 550.379 137.448C555.587 137.448 558.563 141.044 558.563 143.648C558.563 144.02 558.439 145.136 558.191 146.996C557.447 152.576 555.959 164.852 555.711 179.36C558.687 172.54 565.631 165.596 572.947 165.596C580.511 165.596 588.571 171.92 588.571 185.808C588.571 186.428 588.571 187.048 588.447 187.792C591.795 187.42 595.019 187.296 597.995 187.296C600.227 187.296 601.839 187.42 602.459 187.916ZM566.003 208.252C567.739 206.888 570.467 204.532 572.947 200.688C569.599 202.796 566.995 205.276 566.003 208.252ZM645.537 189.28C647.149 190.024 648.761 191.14 648.389 192.504C648.017 193.992 645.289 200.068 640.949 205.648C636.981 210.856 630.285 216.932 621.729 216.932C610.197 216.932 597.921 207.756 597.921 190.892C597.921 177.624 606.477 166.34 616.769 166.34C623.837 166.34 630.285 172.54 630.285 179.236C630.285 188.66 623.217 196.596 614.909 196.596C614.165 196.596 613.421 196.472 613.049 196.472C613.421 203.664 616.397 208.996 619.993 208.996C628.053 208.996 637.105 195.604 639.957 189.528C640.701 188.164 643.305 188.412 645.537 189.28ZM619.621 175.64C619.001 175.64 614.661 180.476 613.421 189.528C616.397 188.536 620.365 184.196 620.365 178.616C620.365 176.632 619.745 175.764 619.621 175.64ZM682.729 187.544C685.829 187.544 688.805 189.404 688.805 190.768C688.805 192.38 684.465 193.62 680.993 193.62C669.709 193.62 666.113 185.312 665.121 181.22C659.293 189.28 655.945 206.888 654.829 212.716C654.829 213.336 654.705 213.708 654.581 213.956C654.581 213.956 654.581 213.956 654.581 214.08C654.581 214.204 654.705 214.328 654.705 214.452C654.705 217.304 653.217 218.792 650.489 218.792C646.397 218.792 643.793 215.444 642.801 212.468C641.809 209.492 639.453 198.952 639.453 184.94C639.453 179.856 639.825 170.804 641.065 168.076C641.685 166.464 643.173 164.604 646.645 164.604C649.869 164.604 652.969 165.968 654.581 168.076C655.573 169.316 656.069 170.68 655.697 172.044C655.325 173.656 654.829 176.508 654.457 179.732C657.805 173.656 661.525 170.556 665.493 170.556C669.213 170.556 670.825 172.292 671.817 173.16C673.677 175.02 674.421 177.996 675.165 180.848C675.909 183.452 676.529 185.808 677.893 187.296C678.265 187.668 679.009 188.04 679.753 188.04C680.249 188.04 680.745 187.916 681.241 187.792C681.737 187.668 682.233 187.544 682.729 187.544Z" fill="#FF5D00"/>
</g>
<defs>
<filter id="filter0_i_31_2" x="129.172" y="44.212" width="463.081" height="144.924" filterUnits="userSpaceOnUse" color-interpolation-filters="sRGB">
<feFlood flood-opacity="0" result="BackgroundImageFix"/>
<feBlend mode="normal" in="SourceGraphic" in2="BackgroundImageFix" result="shape"/>
<feColorMatrix in="SourceAlpha" type="matrix" values="0 0 0 0 0 0 0 0 0 0 0 0 0 0 0 0 0 0 127 0" result="hardAlpha"/>
<feOffset dy="4"/>
<feGaussianBlur stdDeviation="2"/>
<feComposite in2="hardAlpha" operator="arithmetic" k2="-1" k3="1"/>
<feColorMatrix type="matrix" values="0 0 0 0 0 0 0 0 0 0 0 0 0 0 0 0 0 0 0.25 0"/>
<feBlend mode="normal" in2="shape" result="effect1_innerShadow_31_2"/>
</filter>
<filter id="filter1_d_31_2" x="0" y="119.448" width="688.805" height="99.344" filterUnits="userSpaceOnUse" color-interpolation-filters="sRGB">
<feFlood flood-opacity="0" result="BackgroundImageFix"/>
<feColorMatrix in="SourceAlpha" type="matrix" values="0 0 0 0 0 0 0 0 0 0 0 0 0 0 0 0 0 0 127 0" result="hardAlpha"/>
<feOffset dx="-10" dy="-10"/>
<feGaussianBlur stdDeviation="4"/>
<feComposite in2="hardAlpha" operator="out"/>
<feColorMatrix type="matrix" values="0 0 0 0 0 0 0 0 0 0 0 0 0 0 0 0 0 0 0.4 0"/>
<feBlend mode="normal" in2="BackgroundImageFix" result="effect1_dropShadow_31_2"/>
<feBlend mode="normal" in="SourceGraphic" in2="effect1_dropShadow_31_2" result="shape"/>
</filter>
</defs>
</svg>
