<?xml version="1.0" encoding="UTF-8"?>
<svg xmlns="http://www.w3.org/2000/svg" xmlns:xlink="http://www.w3.org/1999/xlink" viewBox="0 0 1829.55 1830">
  <defs>
    <style>
      .cls-1 {
        fill: #8c8c07;
      }

      .cls-2 {
        fill: #dd9790;
      }

      .cls-3 {
        fill: #ffe8e6;
      }

      .cls-4 {
        fill: #9c4176;
        opacity: .35;
      }

      .cls-4, .cls-5 {
        mix-blend-mode: multiply;
      }

      .cls-6 {
        fill: #d7866b;
      }

      .cls-7, .cls-8 {
        fill: #fff;
      }

      .cls-9 {
        fill: #e33a2e;
      }

      .cls-10 {
        fill: #e73e28;
      }

      .cls-11 {
        fill: #ffc73e;
      }

      .cls-12 {
        fill: #960d4c;
      }

      .cls-13 {
        fill: #f0bfb1;
      }

      .cls-14 {
        fill: none;
      }

      .cls-15 {
        fill: #fa9b80;
      }

      .cls-16 {
        fill: #4f0825;
      }

      .cls-17 {
        fill: #f7582c;
      }

      .cls-18 {
        fill: #bf645a;
      }

      .cls-5 {
        fill: #edadab;
        opacity: .5;
      }

      .cls-19 {
        fill: #ffd6c9;
      }

      .cls-20 {
        isolation: isolate;
      }

      .cls-21 {
        fill: #8e362f;
      }

      .cls-22 {
        fill: #261c28;
      }

      .cls-23 {
        fill: #fa703d;
      }

      .cls-24 {
        fill: #cdcd00;
      }

      .cls-25 {
        fill: #ffd586;
      }

      .cls-26 {
        fill: #e5aa9e;
      }

      .cls-27 {
        fill: #ad5645;
      }

      .cls-28 {
        fill: #c5604f;
      }

      .cls-29 {
        fill: #cd6e61;
      }

      .cls-30 {
        fill: #e5e515;
      }

      .cls-31 {
        fill: #961147;
      }

      .cls-32 {
        fill: #872893;
      }

      .cls-33 {
        fill: #411348;
      }

      .cls-34 {
        fill: #382a38;
      }

      .cls-35 {
        fill: #b1b000;
      }

      .cls-36 {
        fill: #5d1f65;
      }

      .cls-8 {
        opacity: .6;
      }

      .cls-37 {
        fill: #f0f2f7;
      }

      .cls-38 {
        fill: #f8ad36;
      }

      .cls-39 {
        fill: #9e4135;
      }

      .cls-40 {
        fill: #b45142;
      }

      .cls-41 {
        fill: #e5a39a;
      }

      .cls-42 {
        clip-path: url(#clippath);
      }

      .cls-43 {
        fill: #f4bfbd;
      }

      .cls-44 {
        fill: #e1e4ea;
      }
    </style>
    <clipPath id="clippath">
      <path id="SVGID" class="cls-14" d="M1821.94,732.77c65.56,436.3-302.91,818.14-698.12,944.08-113.48,36.16-246.07,33.17-378.26,34.97-81.45,1.11-162.07,18.35-240.02,5.04-220.01-37.57-409.97-134.64-478.95-302.97-115.09-280.83,179.07-597.04,207.05-626.34-17.66-21.17-200.73-247.68-103.42-476.99C222.2,93.82,493.42,35.91,570.53,19.47c446.07-95.07,1168.33,160.39,1251.41,713.3Z"/>
    </clipPath>
  </defs>
  <g class="cls-20">
    <g id="Camada_2" data-name="Camada 2">
      <g id="Illustration">
        <g id="Drawing_lessons" data-name="Drawing lessons">
          <g>
            <path class="cls-3" d="M1821.94,732.77C1738.86,179.87,1016.6-75.6,570.53,19.47c-77.11,16.43-348.33,74.35-440.31,291.09-97.31,229.31,85.75,455.82,103.42,476.99-27.98,29.3-322.14,345.5-207.05,626.34,55.07,134.37,187.22,223.33,350.2,272.86v-4.14h728.31c6.29-1.88,12.53-3.8,18.72-5.77,395.21-125.94,763.68-507.77,698.12-944.08Z"/>
            <g class="cls-42">
              <g>
                <path class="cls-8" d="M13.65,1090.19c4.99-22.1,211.63,57.89,455.45-10.08,250.74-69.9,403.79-258.08,447.46-316.24,144.53-192.5,92.18-294.4,211.22-412.03,84.49-83.48,248.08-167.75,599.17-135.62,159.54,151.42,176.63,220.72,157.32,255.51-56.17,101.19-415.83-97.7-661.22,54.86-221.38,137.63-96.98,404.17-352.71,574.45-167.58,111.58-377.61,101.42-475.59,96.68-210.33-10.17-385.71-87.06-381.09-107.53Z"/>
                <path class="cls-8" d="M844.72-73.77S411.47,186.05,434.87,479.87C458.27,773.69,327.51,940.77,0,1032.72c0,0,329.48-1.37,570.21-63.65,240.73-62.28,404.4-554.52,418.23-628.94,13.82-74.42,168.43-276.14,289.59-274.36,121.16,1.79-433.31-139.53-433.31-139.53Z"/>
              </g>
            </g>
          </g>
          <g>
            <g>
              <g>
                <g>
                  <path class="cls-17" d="M754.91,924.5c10.51,9.02,22.42,16.39,35.16,21.82-1.73,5.47-3.45,10.93-5.12,16.42-14.78,48.52-26.48,97.95-34.96,147.96-2.11,12.46-4.01,24.95-5.75,37.47-1.62,11.72-3.76,23.74-2.99,35.62.66,10.12,4.17,19.73,11.26,27.11,6.06,6.31,14.03,10.4,22.22,13.22,8.77,3.02,17.98,4.61,27.17,5.66,12.22,1.4,24.52,2.26,36.8,3.07,26.28,1.74,52.63,2.57,78.97,2.51,26.08-.07,52.15-1.02,78.16-2.85,11.95-.84,24.11-1.38,35.96-3.26,8.84-1.4,18.39-4.19,23.87-11.82,3.03-4.2,4.17-9.24,4.57-14.33.49-6.25.17-12.59.08-18.85-.18-13.15-.6-26.29-1.21-39.43-1.2-25.89-3.24-51.68-5.98-77.45,25.56,21.22,55.35,40.49,89.74,40.02,15.38-.21,30.95-4.21,43.56-13.26,14.05-10.08,22.08-25.65,27.01-41.86,9.89-32.57,13.09-74.78-16.26-98.58-5.9-4.79-12.85-8.2-20.32-9.68-4.6-.91-9.32-.98-13.94-1.84-5.01-.93-9.25-3.17-13.19-6.37-8.09-6.56-15.62-13.9-23.36-20.86-7.77-7-15.53-14.01-23.31-20.99-14.11-12.67-28.63-25.36-45.62-34.06-15.29-7.82-32.72-12.23-49.85-9.88-21.26-7.42-43.25-13-65.29-17.09-29.67-5.51-59.85-8.13-90.02-7.72-15.21.21-30.42,1.17-45.54,2.91-14.72,1.69-29.54,3.88-43.96,7.33-12.07,2.89-24.98,7.67-31.94,18.67-7.14,11.3-6.74,25.73-1.74,37.77,5.36,12.92,15.34,23.62,25.82,32.62Z"/>
                  <path class="cls-9" d="M1119.24,988.75c2.65-7.02,5.92-13.82,10.02-20.11,4.26-6.53,9.01-12.76,13.66-19.02,2.35-3.17,4.69-6.34,7.04-9.51,2.39-3.24,4.71-7.07,7.8-9.67.32-.27.87.06.71.48-1.41,3.6-4.22,6.97-6.43,10.12-2.12,3.03-4.25,6.06-6.36,9.09-4.54,6.52-9.35,12.9-13.63,19.6-3.97,6.22-7.11,12.84-9.72,19.74-2.59,6.84-4.48,13.88-7.34,20.62-.39.91-1.84.5-1.68-.49,1.18-7.2,3.36-14.03,5.93-20.85Z"/>
                  <path class="cls-9" d="M741.25,1183.78c-.06-.87-.07-1.74-.09-2.62,3.32-2.3,7.08-4.01,11.06-5.09,22.21-6.02,43.52,6.49,65.69,5.21,18.73-1.09,35.97-13.35,44.39-29.93,9.43-18.56,4.62-38.57-1.87-57.22-3.34-9.59-7-19.08-9.43-28.96-1.22-4.97-2.08-10.02-2.38-15.14-.26-4.5-.38-9.4,1.35-13.66,1.49-3.68,4.61-6.57,8.74-6.61,4.68-.04,8.7,3.34,11.8,6.49,8.03,8.18,15.55,16.79,23.84,24.73,16.84,16.13,35.09,31.21,54.65,43.96,9.49,6.19,20.04,11.88,31.48,13.13,10.45,1.14,20.36-2.27,28.12-9.28,7.05-6.37,12.02-14.8,15.97-23.35,4.7-10.19,8.29-20.96,11.48-31.7,3.66-12.32,6.66-24.85,8.88-37.51,1.94-11.11,2.79-22.33,4.41-33.48,1.32-9.09,3.83-18.2,10.51-24.86.5-.5,1.47-.48,1.93.07,10.95,13.09,15.31,29.72,19.61,45.86,4.2,15.75,9.32,31.14,17.4,45.38,8.15,14.37,19.13,27.33,33.22,36.16,12.34,7.74,26.95,11.19,41.45,10.45,4.61-.24,9.18-.96,13.6-2.17-.22.16-.43.33-.65.49-12.61,9.04-28.19,13.04-43.56,13.26-34.38.48-64.17-18.8-89.74-40.02,2.74,25.77,4.78,51.56,5.98,77.45.61,13.14,1.03,26.28,1.21,39.43.09,6.26.41,12.6-.08,18.85-.4,5.09-1.54,10.12-4.57,14.33-5.48,7.62-15.03,10.42-23.87,11.82-11.85,1.88-24,2.42-35.96,3.26-26.01,1.84-52.08,2.79-78.16,2.85-26.34.07-52.69-.77-78.97-2.51-12.27-.81-24.57-1.67-36.8-3.07-9.19-1.05-18.4-2.64-27.17-5.66-8.19-2.82-16.16-6.92-22.22-13.22-7.09-7.37-10.6-16.99-11.26-27.11Z"/>
                  <path class="cls-9" d="M776.96,834.89c-.35-.74-.68-1.49-1-2.25,10.19-1.92,20.5-3.36,30.76-4.53,15.12-1.73,30.32-2.7,45.54-2.91,30.17-.41,60.35,2.22,90.02,7.72,22.03,4.09,44.03,9.67,65.29,17.09,10.31-1.41,20.72-.37,30.72,2.38-4.54,12.35-11.53,23.81-20.23,33.78-15.27,17.5-35.56,29.72-57.94,35.76-23.89,6.45-49.51,5.96-73.38-.33-23.09-6.09-44.55-17.64-63.17-32.49-9.27-7.39-17.89-15.59-25.78-24.43-8.08-9.04-15.65-18.76-20.82-29.79Z"/>
                </g>
                <g>
                  <path class="cls-19" d="M1132.27,971.92c-.05,7.01.27,14.42,3.29,20.87,2.94,6.27,8.33,10.65,14.55,13.46,13,5.88,29.13,6.73,42.06.23,11.56-5.82,19.81-17.61,19.74-30.73-.04-8.44-2.39-16.61.06-24.96,2.05-7,6.49-12.75,11.85-17.56,2.63-2.36,5.43-4.51,8.31-6.56,2.84-2.03,5.99-3.83,8.56-6.2,4.14-3.82,5.14-9.94,2.53-14.76,4.54-2.13,8.32-5.59,11.02-9.85,5.66-8.93,6.59-19.98,3.37-29.94-3.57-11.01-11.29-20.41-20.01-27.81-.92-.78-2.31.44-1.4,1.3.02.02.04.04.06.06-2,.22-4.09,1.32-5.83,2.05-13.41,5.64-26.42,12.42-38.4,20.7-23.97,16.57-42.7,39.51-52.33,67.17-4.76,13.67-7.31,28.05-7.41,42.53Z"/>
                  <g>
                    <g>
                      <path class="cls-35" d="M1170.04,957.07c5.38,2.11,11.43.91,16.27-1.99,5.29-3.17,9.02-8.24,12.22-13.4,7.58-12.25,14.75-24.78,22-37.23,13.04-22.4,26.01-44.97,37.24-68.35,1.39-1.76,2.77-3.62,3.39-5.66.23-.75.32-1.48.29-2.17.17-.37.35-.73.52-1.1.34-.76-.37-1.3-1-1.17-1.54-3.91-6.41-6.84-9.55-9.05-5.25-3.7-11.09-7.48-17.17-9.64-2.7-.96-5.79-1.42-8.45-.07-2.62,1.33-4.04,3.97-5.38,6.44-14.38,26.5-28.6,53.09-42.96,79.6-3.56,6.57-7.12,13.15-10.69,19.72-3.11,5.72-6.19,11.58-7.62,17.98-2.15,9.63.78,22.14,10.9,26.1Z"/>
                      <path class="cls-11" d="M1229.66,815.8c5.54,4,11.84,7.06,18.37,9.08,5.04,1.56,12.74,4.26,16.21-1.34,1.51-2.43,1.9-5.48,2.46-8.23.75-3.7,1.47-7.4,2.16-11.11.84-4.51,1.64-9.03,2.3-13.57,1.09-3.8,1.99-7.66,2.74-11.58.93-4.89,3.01-14.06-4.22-15.26-2.74-.45-5.45.84-7.69,2.28-2.91,1.87-5.6,4.22-8.31,6.37-5.38,4.27-10.62,8.75-15.22,13.86-2.28,2.54-4.37,5.23-6.28,8.07-1.04,1.55-2.06,3.13-3.29,4.54-.97,1.11-2.18,1.93-3.19,2.98-4.68,4.82-.36,10.8,3.95,13.92Z"/>
                    </g>
                    <path class="cls-35" d="M1260.99,781.43c2.35,1.47,5.26,1.92,7.94,1.18,2.94-.82,5.08-3.14,6.71-5.61,3.31-5.02,6.25-12.39,2.15-17.8-.09-.11-.2-.16-.31-.17-1.33-2.2-3.68-3.85-6.25-4.11-3.15-.31-5.54,1.66-7.65,3.76-2.23,2.22-4.35,4.72-5.67,7.6-2.28,4.97-2.02,11.97,3.08,15.15Z"/>
                  </g>
                  <path class="cls-19" d="M1155.38,900.33c1.81,4.49,6.43,7.48,11.14,8.06,5.69.7,11.19-1.76,15.61-5.16,5.25-4.04,8.86-9.87,14.09-13.86,4.26-3.25,10.73-.62,13.97-5.68,2.33-3.65,1.67-8.67-1.01-11.93-3.47-4.24-9.21-5.82-14.41-6.6-6.46-.97-13.12-.69-19.24,1.78-4.92,1.99-9.83,5.53-12.49,10.24-1.13,1.48-2.16,3.03-3.09,4.58-3.18,5.3-7.12,12.27-4.57,18.57Z"/>
                  <g>
                    <path class="cls-19" d="M1215.01,909.9c.58,4.4,1.53,9.41,5.22,12.32,3.39,2.67,7.98,2.73,11.95,1.53,4.08-1.23,8.65-3.91,9.06-8.59.23-2.61-.65-5.07-1.09-7.6-.43-2.46,0-4.7,1.26-6.87,2.48-4.28,6.84-6.87,10.49-10.02,3.13-2.71,5.94-5.92,6.74-10.1.45-2.34.18-4.72-.8-6.72-.34-4.54-1.36-9.03-2.88-13.32-1.98-5.59-4.92-11.53-9.07-15.84-3.17-3.29-9.1-5.61-11.79-.44-1.61,3.08-1.83,6.93-1.3,10.67-.9-.64-1.88-1.2-2.9-1.63-4.01-1.68-8.49-1.63-10.19,2.94-1.83,4.93-.05,10.4,1.35,15.18.93,3.18,1.9,6.35,2.85,9.52-.98-.32-2.06-.35-3.27.06-4.57,1.56-5.13,8.08-5.65,12.05-.73,5.57-.72,11.28.03,16.85Z"/>
                    <path class="cls-13" d="M1214.16,889.98c.47-2.66,1.04-5.55,2.38-7.93,1.11-1.98,3.02-3.42,5.31-3.24-.01-.04-.03-.09-.04-.13-.77-2.29-1.39-4.62-1.87-6.99-.49-2.42-.78-4.9-.92-7.37-.15-2.58-.17-5.3.76-7.75,1.44-3.78,5.25-6.05,9.18-4.58,3.89,1.46,6.97,4.82,9.18,8.23,1.52,2.36,2.75,4.84,3.85,7.43,1.13,2.67,2.37,5.5,2.94,8.34.18.9-1.13,1.43-1.55.57-1.26-2.61-2.19-5.37-3.45-7.99-1.08-2.23-2.24-4.48-3.61-6.55-1.29-1.95-2.77-3.78-4.57-5.28-1.79-1.49-4.5-3.35-6.89-2.22-4.81,2.27-3.05,10.07-2.33,14.12.43,2.44.99,4.85,1.71,7.22.38,1.23.79,2.46,1.25,3.66.18.46.35.93.5,1.4.75.75,1.4,1.61,1.96,2.47,3.56,5.51,6.12,11.64,7.52,18.04.17.76-1.04,1.21-1.32.45-2.04-5.41-4.43-10.62-7.56-15.49-.43-.66-.97-1.55-1.62-2.37-.07-.02-.14-.01-.2-.05-.66-.4-1.15-.98-1.55-1.65-.55-.36-1.14-.6-1.78-.59-2.12.04-2.88,3.07-3.36,4.67-1.36,4.59-1.81,9.47-1.43,14.23.19,2.38.62,4.74,1.24,7.04.31,1.13.66,2.24,1.06,3.34.41,1.11.77,1.87.24,2.96-.17.34-.64.57-1.01.46-2.25-.66-2.82-4.64-3.32-6.6-.76-2.97-1.19-6.03-1.31-9.09-.11-2.94.08-5.89.59-8.78Z"/>
                  </g>
                </g>
              </g>
              <g>
                <g>
                  <g>
                    <path class="cls-28" d="M1104.78,533.58c4.85,10.13,17.57,14.23,27.56,17.01,12.78,3.56,26.28,4.65,39.48,3.2,11.36-1.24,25.45-4.7,28.58-17.51,2.34-9.59-4.98-15.77-12.74-19.65,11.01-3.07,20.6-9.93,28.08-18.61,9.96-11.56,16.25-25.74,22.3-39.59.6-1.38-.52-2.56-1.87-2.56-16.05-.06-32.14-2.8-47.27-8.14-12.63-4.46-24.69-12.26-38.28-13.47-12.26-1.09-23.06,5.24-30.15,14.96-7.21,9.9-10,22.15-12.17,33.98-2.06,11.24-3.89,23.01-3.04,34.52-2.06,5.1-2.97,10.66-.48,15.85Z"/>
                    <path class="cls-40" d="M1119.38,503.48c9.43-7.76,20.63-13.16,31.73-18.1,1.13-.5,2.28-.98,3.42-1.47-10.39-.53-20.96,2.24-29.66,7.96-1.29.85-3.4-.4-2.56-2.01,4.04-7.78,9.73-14.59,16.91-19.66,7.33-5.17,15.9-7.94,24.82-8.62,19.4-1.48,38.72,5.43,57.99.78,5.1-1.23,10.15-3.33,14.4-6.45,1.22.15,2.16,1.25,1.6,2.53-6.05,13.86-12.34,28.03-22.3,39.59-7.48,8.68-17.06,15.54-28.08,18.61,7.75,3.88,15.08,10.06,12.74,19.65-3.13,12.8-17.22,16.26-28.58,17.51-13.19,1.45-26.69.36-39.48-3.2-9.99-2.78-22.71-6.88-27.56-17.01-1.75-3.66-1.79-7.51-.96-11.25,1-1.97,2.13-3.85,3.32-5.6,3.39-5.01,7.58-9.41,12.25-13.24Z"/>
                  </g>
                  <path class="cls-38" d="M1081.11,536c-.05,8.68,5.93,17.41,14.49,19.6,2.35.6,4.85.54,7.1-.22,0,.16.01.32.01.48-.01.64.82,1.11,1.38.87,2.53-1.12,4.79-3.07,6.85-4.88,2.07-1.82,3.96-3.94,5.4-6.3,2.59-4.25,3.84-9.53,2.46-14.41-1.24-4.4-4.6-7.52-8.6-9.5-4.15-2.06-9.05-3.79-13.74-3.3-8.82.93-15.29,9.03-15.33,17.67Z"/>
                  <g>
                    <path class="cls-28" d="M797.16,629.04c2.31,12.63,12.27,21.68,23.15,27.55-.93.61-1.82,1.27-2.66,2.01-6.6,5.75-9.65,14.64-10.24,23.17-.66,9.62,1.84,19.1,6.04,27.71,9.71,19.91,27.62,34.26,46.38,45.23,10.8,6.31,22.08,11.73,33.22,17.41,10.46,5.33,20.62,11.07,30.49,17.43,18.39,11.86,36.41,25.11,57.15,32.65,10.68,3.88,21.76,5.8,33.12,5.72,12.36-.09,24.8-1.79,37.11-.09-.03,7.09,4.79,13.07,11.6,15.13,4.32,1.31,8.9,1.93,13.32,2.79,4.76.93,9.53,1.86,14.31,2.69,16.25,2.82,33.19,4.67,49.53,1.4,13.06-2.62,25.69-8.33,35.17-17.86,8.77-8.81,13.59-20.5,13.27-32.94-.26-10.01-4.01-19.8-11.24-26.62,8.15-.9,15.31-5.69,20.21-12.49,5.31-7.37,8.14-16.75,7.14-25.82-1.14-10.44-6.15-19.99-12.73-28.02-7.11-8.67-16.03-15.74-25.34-21.92-1.62-1.08-3.27-2.12-4.93-3.15.77-1.4,1.48-2.83,2.11-4.3,9.86-23.1.94-48.9-11.59-69.01-6.78-10.87-14.64-21.15-22.71-31.1-7.97-9.83-16.56-19.17-26.29-27.29-18.02-15.04-39.16-25.98-61.41-33.24-22.15-7.23-45.92-11.36-69.26-10.91-19.03.37-39.23,4.51-54.79,15.92-10.9-8.92-23.83-15.69-37.76-18.13-24.11-4.21-50.98,5.63-61.99,28.58-10.89,22.69-2.93,49.2,7.43,71.02-3.53-1.49-7.57-1.78-11.41-1-12.72,2.61-18.57,15.41-16.36,27.49Z"/>
                    <path class="cls-40" d="M813.52,601.55c3.84-.79,7.88-.49,11.41,1-10.37-21.82-18.32-48.33-7.43-71.02,11.01-22.95,37.87-32.79,61.99-28.58,1.95.34,3.88.77,5.79,1.28-4.82,7.92-7.73,16.99-8.63,26.32-1.49,15.51,2.67,30.94,11.63,43.68,18.23,25.93,51.59,38.59,82.55,33.42,17.86-2.99,34.2-11.63,45.46-25.95.79-1,2.75-.54,2.76.84.17,18.21,4.1,36.63,13.43,52.42,9.08,15.36,23.57,27.24,40.88,31.99,9.65,2.65,19.73,2.69,29.38,0,.99-.28,2.11.68,1.98,1.7-1.35,10.87-4.09,21.51-8.09,31.69,17.9-.92,37.02,2.22,53,10.37,6.44,3.29,12.57,7.78,16.44,14,4.07,6.53,4.66,14.37,2.11,21.57-2.81,7.93-8.72,14.56-15.07,20,13.2,7.09,22.84,20.24,25.67,34.99,2.15,11.19-.05,22.5-5.54,32.16-9.28,8.63-21.23,13.93-33.59,16.41-16.33,3.27-33.27,1.42-49.53-1.4-4.78-.83-9.55-1.76-14.31-2.69-4.42-.86-9-1.48-13.32-2.79-6.81-2.06-11.63-8.04-11.6-15.13-12.31-1.7-24.74,0-37.11.09-11.37.08-22.44-1.84-33.12-5.72-20.74-7.54-38.76-20.79-57.15-32.65-9.87-6.36-20.03-12.1-30.49-17.43-11.14-5.68-22.42-11.1-33.22-17.41-18.75-10.96-36.67-25.31-46.38-45.23-4.2-8.61-6.7-18.08-6.04-27.71.59-8.54,3.64-17.42,10.24-23.17.84-.73,1.74-1.4,2.66-2.01-10.88-5.87-20.84-14.92-23.15-27.55-2.21-12.08,3.64-24.88,16.36-27.49Z"/>
                    <path class="cls-40" d="M909.31,555.18c.57-7.4,6.97-13.81,14.59-13.12,4.44.4,8.76,2.88,11.12,6.71,1.95,3.17,3.12,9.05-1.08,10.96-.9.41-1.85-.79-1.18-1.55,5.28-6.02-3.76-13.21-9.48-13.43-6.94-.28-12.25,6.8-10.97,13.45.76,3.94,3.85,7.07,6.51,9.89,3.07,3.25,6.36,6.42,10.27,8.64,6.79,3.86,14.84,4.83,22.52,5.08,8.52.28,17.97-.6,24.59-6.54.41-.37.95.24.57.63-6.13,6.44-15.07,8.04-23.62,8.09-9.83.06-20.14-1.18-28.39-6.95-4.19-2.93-7.97-6.72-11.22-10.65-2.65-3.21-4.56-6.94-4.23-11.2Z"/>
                    <path class="cls-40" d="M1032.75,587.26c1.45,11.82,6.15,23.66,12.8,33.49,6.46,9.55,16.11,19.76,28.23,21.02,3.07.32,6.22,0,9.16-.97,1.54-.51,3.04-1.24,4.37-2.16.54-.37,4.66-3.39,2.9-4.22-.49-.23-.61-1.04-.1-1.32,1.26-.71,2.51-.33,3.18,1.02.57,1.15.23,2.42-.44,3.45-1.84,2.83-5.27,4.73-8.37,5.84-5.85,2.1-12.45,1.67-18.16-.66-13.36-5.44-22.91-19.03-28.46-31.83-3.28-7.58-4.92-15.4-5.59-23.61-.03-.31.44-.33.48-.03Z"/>
                  </g>
                </g>
                <path class="cls-19" d="M815.08,816.47c10.24,19.51,24.76,37.42,43.49,49.29,19.05,12.07,41.5,18.88,63.83,21.29,22.39,2.42,45.39.37,66.76-6.88,37.5-12.73,69.01-41.84,82.36-79.35,8.66,3.44,18.41,2.68,26.86-1.19,7.73-3.54,14.29-9.78,17.59-17.68,3.44-8.25,2.74-17.65-.98-25.69-3.82-8.24-10.76-15.14-19.31-18.38-1.94-.74-4.42-1.33-7.01-1.59-10.39-3.45-17.82,6.82-23.14,14.08-2.88,3.93-6.25,7.95-11.25,9.03-2.32.5-4.96.38-6.92-1.11-2.08-1.58-2.9-4.21-3.51-6.63-6.01-23.79,5.78-47.69,16.38-68.31.87-1.68-.65-3.4-2.42-2.69-6.59,2.66-13.7,3.61-20.76,2.74-12.48-1.53-23.76-8.54-30.17-19.41-6.34-10.75-7.47-23.96-3.13-35.63.5-1.34-.71-2.76-2.11-2.51-5.65,1-11.34,1.81-17.05,2.39-23.63,2.42-47.63,1.13-70.89-3.65-11.55-2.37-22.91-5.65-33.96-9.76-1.57-.59-3.14-1.19-4.7-1.81-1.08-.43-2.25-1.21-3.44-.77-2,.74-4.05,3.02-5.54,4.49-3.43,3.4-6.26,7.34-8.61,11.54-5.33,9.52-8.74,20.12-12.03,30.48-1.94,6.1-3.72,12.26-5.34,18.45-1.54,5.89-2.78,11.89-4.67,17.68-1.76,5.41-4.26,10.33-7.63,14.91-3.36,4.55-7.17,8.73-10.61,13.22-6.61,8.63-11.04,18.65-13.18,29.3-4.43,21.98.79,44.54,11.08,64.14Z"/>
                <path class="cls-39" d="M862.43,709.42c.67-2.07,1.94-3.97,3.81-5.14,1.8-1.13,4.08-1.46,5.97-.33.49.29.9.65,1.27,1.05,1.15.66,2.15,1.65,2.73,2.77.98,1.9.99,4.24.56,6.29-.45,2.16-1.35,4.66-2.9,6.28-1.7,1.77-4.29,1.74-6.42.86-4.53-1.85-6.45-7.31-5-11.8Z"/>
                <path class="cls-39" d="M953.55,742.44c1.6-1.48,3.82-2.34,5.84-1.12.63.38,1.17.92,1.66,1.51.46.41.95.83,1.31,1.3.49.63.83,1.45,1.1,2.2.53,1.49.73,3.11.6,4.68-.3,3.55-2.6,7.9-6.52,8.36-3.97.46-6.79-3.43-7.33-6.93-.55-3.54.68-7.54,3.34-10Z"/>
                <path class="cls-28" d="M852.33,687.1c2.82,1.75,5.26.66,7.69-.86,4.7.04,9.62,1.7,13.81,3.44,3.63,1.5,6.63,3.84,10.06,5.65,2.54,1.34,5.34,1.12,7.38-.98,2.25-2.3,2.39-5.67,1.59-8.63-1.53-5.63-5.85-10.13-11.11-12.49-11.59-5.18-24.38,1.37-29.95,12.08-.29.57.02,1.47.54,1.79Z"/>
                <path class="cls-28" d="M947.95,717.68c3.38,3.95,9.27,3.02,13.88,3.78,10.05,1.67,18.33,7.42,24.47,15.23.09.48.19.95.32,1.43.26,1.03.73,1.96,1.77,2.39,2.59,1.09,4.11-2.05,4.59-4.02.7-2.87.87-5.86.57-8.8-1.05-10.54-7.9-19.5-17.33-24.08-8.13-3.94-22.87-6.83-28.6,2.53-2.1,3.42-2.38,8.36.34,11.54Z"/>
                <path class="cls-26" d="M883.08,747.64c.42-.34.95-.52,1.51-.65,1.86-1.6,5.19-1.32,7.49-1.17,3.19.2,6.38.88,9.26,2.29,4.84,2.37,8.79,7.11,8.86,12.64,0,.39-.26.63-.57.73.02,1.29-1.79,1.78-2.59.9-2.71-3-5.67-6.34-9.55-7.83-3.64-1.4-7.44-2.39-11.13-3.65-.62-.06-1.24-.15-1.83-.33-.02,0-.03-.02-.05-.03-.28,0-.55,0-.81-.06-1.38-.33-1.64-1.99-.59-2.84Z"/>
                <path class="cls-26" d="M1078.54,778.1c1.95-2.15,4.18-3.98,6.7-5.43,1.34-.77,2.76-1.42,4.22-1.93,1.53-.54,3.26-1.09,4.89-1.07.74,0,1.12.95.51,1.35.45.54.38,1.51-.51,1.77-3.21.93-6.4,1.99-8.9,4.31-1.25,1.16-2.13,2.65-3.04,4.08-.25.39-.5.77-.75,1.16,1.4-.36,2.81-.7,4.22-1.02,1.45-.33,2.91-.57,4.4-.47,1.38.1,3.72.53,3.75,2.29.01.69-.43,1.3-1.08,1.52-.09.03-.19.02-.28.04-.2.13-.44.21-.69.21-1.65.01-3.28-.1-4.91.21-1.48.29-2.89.79-4.29,1.36-2.31.93-6.2,2.48-7.51-.77-1.1-2.72,1.57-5.72,3.26-7.59Z"/>
                <g>
                  <path class="cls-2" d="M837.41,777.55c2.96-4.47,8.38-5.59,13.41-4.86,2.95.43,5.81,1.28,8.58,2.4-.45,9.73,4.85,20.61,27.56,29.14,22.3,8.38,38.1,7.15,47.41,1.4,4.66.26,9.69.53,13.28,3.66,1.83,1,3.32,2.46,4.06,4.57,1.72,4.9-.36,10.34-3.04,14.48-3.09,4.76-7.31,9.07-11.39,12.98-8.38,8.03-18.56,12.58-30.18,13.21-12.04.65-23.82-2.81-34.78-7.53-10.64-4.59-20.74-10.14-27.07-20.21-6.26-9.95-10.21-22.24-10.6-34-.17-4.99-.11-10.92,2.75-15.24Z"/>
                  <path class="cls-7" d="M884.28,811c-22.71-8.53-25.32-26.18-24.88-35.9,8.06,3.24,15.46,8.74,22.82,12.92,10.36,5.89,21.18,11.01,32.67,14.26,6.29,1.78,12.7,2.99,19.24,3.35.08,0,.17,0,.25.01-9.32,5.75-27.81,13.73-50.1,5.36Z"/>
                </g>
              </g>
              <g>
                <g>
                  <path class="cls-7" d="M579.21,816.57c-.48,19.51-.89,39.02-1.47,58.53-1.15,38.77-2.96,77.55-7.21,116.11-1.05,9.55-2.46,19.05-3.62,28.59-.47,3.81-.42,7.82,1.97,11.03,2.3,3.08,6.01,5.21,9.25,7.14,14.7,8.74,31.81,12.26,48.55,14.59,37.29,5.2,75.15,7.01,112.77,5.89,19.02-.56,38.02-1.92,56.93-4.06,4.68-.53,9.35-1.11,14.01-1.73,3.38-.45,6.96-.79,9.97-2.53,3.43-1.98,4.59-5.6,3.83-9.36-.44-2.18-1.34-4.27-2.11-6.35-.21-.56-5.1-60.96-7.51-90.58-2.71-33.26-5.38-66.53-8.05-99.79-1.34-16.68-2.68-33.35-4.03-50.03-.66-8.22-1.32-16.45-1.98-24.68-.28-3.51-.07-7.61-1.47-10.92-1.4-3.3-4.62-4.67-7.99-5.08-7.63-.94-15.44-1.1-23.11-1.51-8.22-.44-16.45-.79-24.68-1.05-16.26-.5-32.52-.63-48.79-.38-32.42.49-64.82,2.46-97.06,5.91-3.99.43-7.98.88-11.97,1.35-.62.07-1.07.52-1.21,1.12-4.36,18.92-4.55,38.46-5.02,57.78Z"/>
                  <path class="cls-35" d="M743.88,950c23.31-23.61,37.47-56.23,38.37-89.42.23-8.36-.48-16.73-1.98-24.96-.83-4.52-2.2-9.2-6.26-11.88-4.4-2.9-9.87-2.14-14.56-.42-16.06,5.9-30.79,15.18-43.46,26.63-23.93,21.62-40.2,51.32-45.34,83.12-10.33-18.47-25.64-34.23-43.85-44.95-8.26-4.87-17.19-8.67-26.42-11.29-3.35-.95-7.56,1.78-7.26,5.53,2.81,34.48,22.39,66.4,51.5,85.02,7.48,4.78,15.69,8.72,24.18,11.34,1.38.43,2.77.78,4.16,1.09.05.29.1.58.22.87,7.95,19.17,13.34,39.42,15.63,60.06.34,3.08,2.39,5.73,5.73,5.73,2.84,0,6.08-2.64,5.73-5.73-2.27-20.54-7.14-40.61-14.74-59.81,4.92-.18,9.83-1.07,14.66-2.68,16.47-5.52,31.54-15.94,43.68-28.24ZM659.48,962.63c-27.09-13.58-47.12-39.74-53.32-69.39-.17-.84-.29-1.68-.44-2.52,26.24,10.06,47.7,30.91,59.28,56.54,2.94,6.5,5.05,13.38,6.52,20.37-4.18-1.3-8.23-3.09-12.04-5ZM680.46,951.05c.63-30.13,12.87-59.52,32.79-82.02,10.1-11.42,22.02-21.07,35.45-28.31,3.23-1.74,6.53-3.37,9.91-4.79,1.69-.71,3.41-1.41,5.15-1.98.83-.27,2.92-1.2,3.8-.72.88.48,1.08,2.66,1.25,3.47.39,1.85.71,3.73.98,5.6.51,3.51.79,7.06.93,10.6,1.15,29.19-9.21,58.76-27.88,81.19-9.4,11.3-20.73,20.85-33.72,27.79-6.33,3.38-13.23,6.36-20.4,7.39,11.32-26.78,27.88-51.26,48.37-71.87,5.21-5.24-2.9-13.35-8.11-8.11-19.97,20.09-36.11,43.55-47.93,69.2-.43-1.55-.88-3.09-1.38-4.62.45-.77.75-1.69.78-2.8Z"/>
                </g>
                <g>
                  <path class="cls-19" d="M681.8,776.61c1.56,3.83,6.07,6.6,9.79,5.01.96,3.25,3.76,5.83,7.2,6.57,3.75.81,7.42-.67,10.44-2.89.83,2.43,3,4.31,5.62,5.09,4.59,1.37,8.94-1.43,11.83-4.8,4.06-4.73,7.06-10.51,9.19-16.56,0,.56-.02,1.13-.01,1.69.04,3.31.35,6.69,1.52,9.81,2.23,5.96,8.18,9.05,14.19,6.28,6.92-3.19,8.96-11.05,11.05-17.71,1.36-4.34,2.73-8.68,4.09-13.02,1.3-4.13,3.13-8.4,3.92-12.65.47-2.55-.79-4.03-2.74-4.68-6.81-6.21-17.5-6.79-25.36-1.82-1.94-4.73-6.89-8.21-12.02-8.25-4.62-.04-8.71,2.2-11.25,5.83-1.79-2.55-5.07-3.91-8.27-3.76-4.18.18-7.48,3-9.65,6.38-1.31-.98-3.16-1.26-4.77-.77-2.79.84-4.86,3.43-6.61,5.61-3.83,4.78-6.52,10.45-8.04,16.38-1.44,5.59-2.36,12.75-.11,18.25Z"/>
                  <path class="cls-13" d="M691.1,769.05c.46-2.58.96-5.16,1.55-7.72,1.2-5.17,2.97-10.01,5.86-14.49.32-.5,1.19-.03.92.51-3.85,7.56-5.03,16.4-5.89,24.74-.45,4.3.09,8.77,3.82,11.53,3.35,2.47,7.41,1.69,10.26-1.06.02-.02.04-.02.06-.04-.11-.42-.21-.84-.29-1.26-1.19-6.31-.71-12.81.65-19.04.79-3.62,1.85-7.16,3.04-10.66,1.27-3.75,2.67-7.71,4.8-11.07.21-.32.65-.12.6.24-.49,3.36-1.72,6.55-2.62,9.81-.97,3.51-1.98,7-2.69,10.58-1.32,6.67-2.06,14.26-.18,20.9.82,2.9,2.54,5.87,5.93,5.93,3.06.05,6.08-1.74,8.32-3.7,2.15-1.87,3.88-4.18,5.37-6.59,1.55-2.52,2.7-5.3,4.26-7.82.13-5.26.95-10.58,2.13-15.67.61-2.64,1.22-5.4,2.22-7.93.62-1.57,1.29-2.78,3.08-2.75.21,0,.31.31.18.45-1.52,1.67-1.77,4.17-2.2,6.28-.47,2.32-.85,4.65-1.18,7-.65,4.55-1.22,9.23-1.06,13.83.12,3.67.67,7.7,3.06,10.65,2.61,3.24,6.21,4.43,10.3,3.95.76-.09,1.25.9.62,1.4-3.91,3.07-9.5.83-12.67-2.38-2.22-2.24-3.44-5.21-4.04-8.3-1.46,2.76-3.25,5.38-5.15,7.63-3.31,3.91-8.43,7.66-13.82,7.25-3.48-.26-5.85-2.48-7.33-5.31-2.67,2.39-6.78,3.13-10.17,2.07-4.27-1.34-7.4-5.25-8.24-9.59-.6-3.14-.03-6.27.53-9.38Z"/>
                </g>
              </g>
            </g>
            <g>
              <path class="cls-12" d="M74.42,1359.99s-123.97,182.3,38.45,262.04c162.42,79.74,307.97-25.01,307.97-25.01l-20.63-207.24-325.79-29.79Z"/>
              <g>
                <path class="cls-17" d="M287.04,1009.87s-73.87-22.67-109.32,50.59c-35.45,73.26-95.18,161.12-122.53,197.54-21.82,29.05-34.4,48.24-40.39,71.44-2.82,10.92.32,22.52,7.98,30.79,16.08,17.34,45.5,49.48,62.77,70.83,24.65,30.48,123.92,127.17,335.29,22.31l19.01-260.97,71.47-58.68s-90.24-110.69-123.56-116.66c-33.31-5.97-100.72-7.19-100.72-7.19Z"/>
                <path class="cls-10" d="M225.01,1057c-109.74,26.4-30.98,379.36-75.82,313.17-44.83-66.19-56.36-77.11-55.8-21.09.53,53.13,46.41,108.5,77.81,140.22,54.66,18.57,135.92,20.5,249.64-35.92l19.01-260.97,53.68-44.07c-18.17-18.27-17.47-83.03-61.49-31.65-85.8,100.14-91.43-87.5-207.04-59.68Z"/>
              </g>
            </g>
            <g>
              <path class="cls-24" d="M1476.5,1037.22s-101.59,35.84-96.96,87.56c4.63,51.72,50.81,188.1,50.81,188.1l297.34,115.16s64.53-235.46,12.05-326.79c-46.67-81.23-84.75-70.41-117.2-74.36-29.65-3.61-146.04,10.32-146.04,10.32Z"/>
              <path class="cls-35" d="M1496.85,1277.33c-14.85-1.67-39.07,18.45-59.12,38.41l289.96,112.3,24.02-71.82-98.04-112.52c-37.5,26.93-127.89,36.88-156.81,33.63Z"/>
            </g>
            <g>
              <path class="cls-25" d="M141.69,1558.13l-10.22-74.26,1684.62,31-16.1,93.35c-3.09,17.89-11.37,34.56-24.01,47.84-56.99,59.83-253.85,201.57-823,169.2-467.74-26.6-667.73-112.3-750.26-168.66-33.57-22.93-55.56-58.77-61.03-98.47Z"/>
              <path class="cls-4" d="M141.69,1558.13l-10.22-74.26,1684.62,31-16.1,93.35c-3.09,17.89-11.37,34.56-24.01,47.84-56.99,59.83-253.85,201.57-823,169.2-467.74-26.6-667.73-112.3-750.26-168.66-33.57-22.93-55.56-58.77-61.03-98.47Z"/>
              <path class="cls-25" d="M1816.09,1514.86c0,164.1-333.48,295.25-852.06,266.12-459.05-25.78-834.02-125.18-832.56-297.12,1.08-127.33,372.75-297.12,832.56-297.12s852.06,164.02,852.06,328.12Z"/>
              <path class="cls-5" d="M1149.29,1316.98l-42.54,1.12s26.31,13.7,55.91,46c29.6,32.3,38.88,57.3,74.47,66.82,35.58,9.53,73.51,49.59,85.92,64.34,12.41,14.75,57.28-25.48,94.52-41.17,37.23-15.69,67.54-24.69,92.96-29.73,25.42-5.04,27.11-19.66,27.11-19.66l-388.35-87.72Z"/>
              <path class="cls-7" d="M1537.98,1383.16c-47.44-37.29-157.69-123.18-173.11-128.28-19.73-6.52-245.11,46.77-245.11,46.77,18.56,50.94,155.98,141.76,197.29,168.16,7.22,4.62,16.31,5.35,24.2,1.93,19.14-8.29,56.5-24.17,85.07-34.37,26.4-9.43,75.79-22.55,106.47-30.41,11.07-2.84,14.12-16.79,5.2-23.8Z"/>
              <path class="cls-17" d="M1360.47,1377.64c-25.14-.38-50.27-2.17-75.2-5.51-6.19-.83-12.36-1.77-18.52-2.78-2.96-.49-5.92-1-8.88-1.53-.32-.06-.73-.17-1.14-.26.06-.62.1-1.19.14-1.42l7.29-37.38c2.76-14.13,5.52-28.27,8.27-42.4.59-3.04-.86-6.19-4.01-7.05-2.81-.77-6.46.95-7.05,4.01-2.32,11.88-4.63,23.75-6.95,35.63-.29.03-.57.08-.87.13-1.05.2-1.97.76-2.85,1.33-2.2,1.43-4.4,2.85-6.6,4.28-1.25.81-2.23,1.97-2.64,3.43-.24.76-.27,1.52-.1,2.29.03.76.26,1.47.68,2.13.79,1.22,1.96,2.3,3.43,2.64,1.47.33,3.12.26,4.42-.58.57-.37,1.13-.73,1.7-1.1-2,10.24-4,20.48-5.99,30.73-.55,2.84-1.17,5.67-.22,8.49,1.27,3.78,4.7,5.31,8.34,5.98,6.64,1.23,13.32,2.31,20,3.31,13.5,2.01,27.06,3.63,40.66,4.81,15.33,1.33,30.71,2.09,46.1,2.32,7.38.11,7.39-11.36,0-11.47Z"/>
              <path class="cls-17" d="M1315.21,1327.31c-1.6-1.35-3.21-2.7-4.81-4.05-2.37-2-4.7-4.15-8.06-3.95-2.64.15-5.17,1.3-7.44,2.59-1.95,1.11-3.78,2.51-5.42,4.04-1.32,1.24-1.81,3.07-1.58,4.82,0,0,0,.02,0,.03-.31,1.34-.16,2.79.59,4.11,2.21,3.89,5.19,7,8.71,9.7,1.44,1.11,4.34,1.08,5.79,0,3.68-2.76,7.36-5.52,11.04-8.28,1.5-1.12,2.48-2.28,2.74-4.19.23-1.67-.21-3.67-1.58-4.82Z"/>
              <path class="cls-17" d="M1384.46,1300.44c-9.64-9.07-19.3-18.13-29.48-26.6-4.51-3.75-10.04.04-9.66,4.59-2.82-1.98-5.69-3.9-8.65-5.65-2.44-1.45-5.72-.77-7.4,1.48-1.84,2.46-1.38,5.22.45,7.53l1.88,2.38c-5.3-3.48-10.88-6.47-17-8.55-2.38-.81-5.25.54-6.48,2.64-1.36,2.33-.76,4.98.9,6.95.43.51.85,1.02,1.28,1.52-4.24-3.27-8.61-6.38-13.18-9.21-6.29-3.9-12.06,6.02-5.79,9.9,12.1,7.5,22.66,17.01,33.22,26.48,11.63,10.42,23.25,20.84,34.88,31.27,5.56,4.98,12.83-2.49,8.11-8.11l-25.65-30.51c8.44,7.12,16.71,14.44,24.76,22.01,2.25,2.12,5.87,2.24,8.11,0,2.4-2.4,1.93-5.67,0-8.11-2.28-2.89-4.56-5.78-6.84-8.66,2.4,1.3,4.96,2.32,7.75,2.8,3.94.69,6.84-1.92,7.1-5.09,3.17-1.61,5.03-5.92,1.69-9.06Z"/>
              <g>
                <path class="cls-5" d="M268.22,1486.38s-11.19,24.2.96,45.5c12.15,21.3,190.47,30.56,227.61,33.11,37.14,2.56,43.3-7.7,43.3-7.7,0,0,93.28,36.4,113.38,28.97s-62.3-54.32-62.3-54.32c0,0,34.14-4.04,40.3-13.48,6.16-9.44-15.51-23.99-15.51-23.99,0,0,21.77-14.54,40.66-49.36,18.89-34.83,37.48-47.96,56.99-64.41,19.51-16.45,22.05-37.92,22.05-37.92l-467.44,143.61Z"/>
                <path class="cls-7" d="M456.64,1324.67s96.92,2.93,156,6.31c59.08,3.38,119.58,9.63,123.01,11.79,3.44,2.16-180.2,194.64-180.2,194.64,0,0-257.61-31.78-288.48-38.21-30.87-6.42,116.8-133.64,189.67-174.54Z"/>
                <g>
                  <g>
                    <path class="cls-35" d="M401.77,1456.88c-.41,5.77,2.53,11.18,6.75,14.94,4.61,4.11,10.55,6.16,16.43,7.67,13.95,3.59,28.05,6.71,42.09,9.92,25.26,5.79,50.67,11.45,76.33,15.21,2.09.81,4.28,1.56,6.41,1.55.79,0,1.5-.14,2.16-.37.4.05.8.11,1.2.17.83.1,1.13-.74.82-1.3,3.27-2.64,4.63-8.16,5.8-11.81,1.97-6.11,3.84-12.81,4.1-19.26.11-2.87-.37-5.95-2.44-8.09-2.05-2.11-4.99-2.67-7.75-3.22-29.58-5.84-59.2-11.5-88.78-17.32-7.33-1.44-14.67-2.88-22-4.33-6.39-1.26-12.9-2.47-19.44-1.93-9.83.81-20.91,7.33-21.68,18.17Z"/>
                    <path class="cls-11" d="M554.39,1471.74c-2.17,6.49-3.22,13.41-3.2,20.24.01,5.28-.27,13.43,6.11,15.08,2.77.72,5.79.18,8.59-.1,3.75-.38,7.51-.8,11.26-1.24,4.56-.54,9.11-1.12,13.64-1.84,3.95-.09,7.91-.38,11.87-.83,4.95-.57,14.32-1.31,13.31-8.57-.38-2.75-2.42-4.95-4.47-6.67-2.65-2.23-5.7-4.09-8.56-6.03-5.68-3.86-11.52-7.53-17.76-10.4-3.1-1.43-6.3-2.61-9.57-3.59-1.79-.54-3.6-1.04-5.31-1.79-1.34-.59-2.49-1.5-3.79-2.16-6-3.03-10.42,2.87-12.11,7.92Z"/>
                  </g>
                  <path class="cls-35" d="M596.52,1491.42c-.7,2.68-.27,5.6,1.24,7.93,1.65,2.57,4.51,3.92,7.35,4.74,5.78,1.67,13.69,2.28,17.63-3.24.08-.12.1-.24.07-.35,1.71-1.93,2.58-4.66,2.06-7.19-.64-3.1-3.23-4.79-5.86-6.18-2.78-1.47-5.8-2.75-8.94-3.15-5.43-.7-12.03,1.64-13.55,7.45Z"/>
                </g>
                <g>
                  <g>
                    <path class="cls-17" d="M447.89,1477.3c-1.92,5.45-.51,11.45,2.56,16.19,3.36,5.18,8.55,8.73,13.82,11.74,12.5,7.15,25.28,13.88,37.97,20.69,22.84,12.25,45.85,24.42,69.61,34.83,1.8,1.33,3.71,2.64,5.78,3.19.76.2,1.49.26,2.18.22.37.16.74.32,1.12.48.77.32,1.28-.42,1.14-1.04,3.85-1.68,6.62-6.65,8.71-9.86,3.51-5.38,7.09-11.34,9.04-17.49.87-2.74,1.22-5.83-.22-8.44-1.42-2.57-4.1-3.9-6.63-5.15-26.99-13.44-54.06-26.73-81.05-40.16-6.69-3.33-13.39-6.66-20.08-9.99-5.83-2.91-11.79-5.79-18.24-6.99-9.7-1.81-22.1,1.55-25.71,11.8Z"/>
                    <path class="cls-11" d="M591.16,1531.94c-3.81,5.68-6.65,12.08-8.43,18.68-1.38,5.09-3.81,12.88,1.91,16.16,2.48,1.42,5.54,1.71,8.31,2.17,3.72.62,7.45,1.21,11.18,1.77,4.54.68,9.08,1.32,13.64,1.83,3.84.96,7.73,1.72,11.67,2.33,4.92.76,14.16,2.52,15.1-4.75.36-2.75-1.03-5.42-2.55-7.61-1.97-2.85-4.41-5.45-6.66-8.08-4.45-5.22-9.12-10.3-14.39-14.72-2.62-2.19-5.38-4.18-8.28-5.99-1.58-.99-3.2-1.95-4.65-3.13-1.14-.93-2-2.11-3.09-3.09-4.98-4.51-10.81.01-13.77,4.44Z"/>
                  </g>
                  <path class="cls-17" d="M626.6,1562.06c-1.38,2.4-1.74,5.33-.9,7.98.92,2.91,3.31,4.97,5.84,6.51,5.14,3.13,12.6,5.82,17.86,1.53.11-.09.16-.2.16-.31,2.15-1.41,3.72-3.81,3.89-6.39.2-3.16-1.85-5.48-4.02-7.51-2.29-2.16-4.87-4.18-7.79-5.4-5.05-2.11-12.03-1.6-15.03,3.61Z"/>
                </g>
                <g>
                  <g>
                    <path class="cls-12" d="M265.2,1504.75c-.29,5.77,2.76,11.13,7.05,14.8,4.69,4.01,10.67,5.94,16.58,7.33,14.02,3.31,28.18,6.13,42.28,9.05,25.38,5.27,50.89,10.4,76.63,13.63,2.11.76,4.31,1.47,6.44,1.42.79-.02,1.5-.17,2.16-.41.4.04.8.1,1.21.14.83.09,1.11-.77.79-1.32,3.22-2.7,4.46-8.25,5.56-11.93,1.84-6.15,3.58-12.89,3.7-19.34.06-2.87-.49-5.94-2.61-8.03-2.09-2.07-5.04-2.57-7.82-3.06-29.69-5.23-59.42-10.28-89.12-15.49-7.36-1.29-14.73-2.58-22.09-3.88-6.41-1.13-12.94-2.2-19.47-1.53-9.81,1.02-20.75,7.76-21.3,18.61Z"/>
                    <path class="cls-11" d="M418.09,1516.47c-2.04,6.53-2.94,13.47-2.78,20.3.12,5.28,0,13.43,6.42,14.95,2.79.66,5.8.06,8.58-.28,3.75-.46,7.49-.95,11.23-1.47,4.55-.63,9.09-1.31,13.6-2.12,3.95-.17,7.9-.54,11.85-1.08,4.93-.67,14.29-1.61,13.13-8.84-.44-2.74-2.53-4.9-4.6-6.57-2.7-2.17-5.78-3.97-8.68-5.86-5.75-3.74-11.67-7.29-17.97-10.03-3.13-1.36-6.35-2.48-9.64-3.39-1.8-.5-3.62-.96-5.35-1.68-1.36-.57-2.52-1.45-3.84-2.08-6.06-2.91-10.36,3.08-11.94,8.16Z"/>
                  </g>
                  <path class="cls-12" d="M460.62,1535.28c-.64,2.69-.16,5.6,1.4,7.91,1.71,2.53,4.59,3.82,7.45,4.58,5.81,1.55,13.74,2,17.56-3.61.08-.12.09-.24.07-.35,1.67-1.96,2.49-4.71,1.91-7.23-.71-3.09-3.33-4.72-5.99-6.06-2.81-1.42-5.86-2.63-9.01-2.97-5.44-.59-11.99,1.88-13.39,7.73Z"/>
                </g>
              </g>
              <g>
                <path class="cls-5" d="M1375.54,1506.25c38.04-.14,209.6-.81,267.42-1.54,6.68-.08,11.26,6.69,8.68,12.86-12.23,29.3-43.22,100.83-70.76,142.02-9.29,13.9-25.56,21.4-42.15,19.39-66.39-8.04-251.26-29.8-335.56-33.25-6.6-.27-9.23-8.63-3.99-12.65,37.13-28.45,129-98.66,162.52-122.41,4.05-2.87,8.88-4.41,13.85-4.42Z"/>
                <path class="cls-7" d="M1394.31,1504.84c36.28-.14,199.91-.77,255.06-1.47,6.37-.08,10.74,6.38,8.28,12.26-11.67,27.95-41.23,96.17-67.49,135.46-8.86,13.25-24.38,20.42-40.2,18.5-63.32-7.67-239.65-28.42-320.05-31.71-6.29-.26-8.81-8.23-3.81-12.06,35.41-27.14,123.04-94.1,155-116.75,3.86-2.74,8.47-4.2,13.21-4.22Z"/>
                <path class="cls-11" d="M1554.09,1550.51c-1.85-2.87-4.89-3.33-7.85-2.06-.15.06-.25.11-.34.15-.36.15-.72.3-1.08.44-.56.23-1.13.45-1.69.66-1.32.5-2.65.98-3.99,1.44-2.49.84-5,1.59-7.54,2.25-2.54.66-5.1,1.23-7.69,1.71-3.13.58-4.65.79-7.47,1.08-1.09.11-2.16.47-3.08,1.03-4.2-6-9.74-11.23-15.14-15.28,4.55-4.29,8.33-9.55,10.83-15.28.64-1.47,1.02-2.81.58-4.42-.37-1.33-1.4-2.77-2.64-3.43-1.33-.7-2.94-1.06-4.42-.58-1.32.43-2.85,1.3-3.43,2.64-1.31,3.02-2.98,5.85-4.93,8.5-1.34,1.67-2.78,3.25-4.34,4.71-.53.49-.92,1.1-1.2,1.76-9.11-4.96-19.19-8.31-29.24-10.46-6.83-1.46-13.96-2.42-21.14-2.77l.13-.96c0-.95-.25-1.84-.69-2.67-.75-1.86-1.28-3.8-1.58-5.79-.02-.22-.05-.44-.06-.66-.11-1.53-.57-2.94-1.68-4.06-.99-.99-2.63-1.74-4.05-1.68-1.48.07-3.02.55-4.06,1.68-.99,1.08-1.78,2.54-1.68,4.06.14,2.08.43,4.17.95,6.19.34,1.34.83,2.63,1.36,3.91-17.28.89-34.13,5.88-47.19,17.12-.57-.44-1.23-.78-1.97-1.05-3.76-1.34-7.52-2.69-11.28-4.03-1.34-.48-3.23-.12-4.42.58-1.19.7-2.32,2.06-2.64,3.43-.33,1.47-.26,3.12.58,4.42.84,1.31,1.96,2.11,3.43,2.64,1.91.68,3.83,1.37,5.74,2.05-.21.02-.4.01-.62.04-.43.06-1.5.24-.47.07-.58.09-1.16.15-1.75.21-1,.11-2,.22-3,.31-2.09.19-4.18.32-6.27.4-4.19.16-8.38.11-12.56-.15-3-.18-5.87,2.77-5.73,5.73.15,3.26,2.52,5.54,5.73,5.73,5.38.33,10.74.24,16.09-.12.8,1.33,1.61,2.65,2.45,3.95-.85,3.05-1.26,6.21-.99,9.46.43,5.14,2.23,9.88,4.88,14.15-2.3.11-4.61.13-6.93.18-9.91.22-18.78,3.26-27.85,7-2.86,1.18-4.9,3.81-4.01,7.05.74,2.71,4.17,5.19,7.05,4.01,4.41-1.82,8.84-3.65,13.45-4.94,4.5-1.27,8.87-1.63,13.53-1.68,4.66-.05,9.17-.53,13.63-1.28.08.07.15.15.23.22-3.82.99-6.62,5.99-2.95,9.58,2.76,2.69,5.7,5.08,8.8,7.21-4.57,4.46-9.13,8.92-13.7,13.38-2.15,2.1-2.26,6.03,0,8.11,2.31,2.12,5.82,2.24,8.11,0,5.33-5.21,10.66-10.41,15.99-15.62,19.2,8.9,42.13,9.79,62.86,6.86,8.42-1.19,16.85-3.18,24.84-6.24-.23,1.69.23,3.45,1.56,4.75,2.73,2.69,5.28,5.55,7.65,8.56,1.35,1.79,2.65,3.62,3.87,5.5.81,1.25,1.97,2.24,3.43,2.64,1.37.38,3.2.21,4.42-.58,2.51-1.62,3.8-5.15,2.06-7.85-3.82-5.91-8.29-11.45-13.31-16.38-.24-.24-.51-.45-.8-.63,1.81-.94,3.59-1.92,5.32-2.99,7.95-4.94,15.93-12.03,20.96-20.49.76.84,1.68,1.38,2.82,1.85,7.28,3.04,14.8,5.45,22.49,7.22,2.92.67,6.35-.9,7.05-4.01.67-2.92-.88-6.33-4.01-7.05-7.69-1.77-15.21-4.19-22.49-7.22-.52-.22-1.16-.24-1.81-.18.36-1.3.67-2.61.86-3.95.66-4.56.05-8.99-1.41-13.22,11.56-1.4,22.64-4.4,33.37-9.02,2.77-1.19,3.59-5.46,2.06-7.85ZM1424.84,1534.15c-2.43,1.93-3.4,5.74-.72,8.56,11.22,11.81,22.44,23.62,33.65,35.44-19.48-11.7-38.26-24.54-56.19-38.5,7.28-3.06,15.22-4.81,23.26-5.49ZM1390.76,1545.57c9.22,14.25,19.72,27.53,31.31,39.8-14.95-8.37-29.59-17.3-43.86-26.8,3.44-5.24,7.68-9.56,12.55-13ZM1426.79,1617.65c.17-1.59-.28-3.2-1.6-4.36-10.35-9.09-20.78-18.29-30.39-28.22-.33-.48-.74-.89-1.21-1.24-1.38-1.45-2.75-2.91-4.09-4.39,21.23,13.22,43.18,25.27,65.77,36.02.39.19.78.33,1.16.44-9.43,1.66-19.59,2.41-29.64,1.75ZM1461.67,1614.88c2.49-2.17,2.96-6.55-.61-9.31-13.95-10.76-26.75-23-38.27-36.35,19.93,13.68,40.67,26.14,62.18,37.24.01,0,.03.01.04.02-7.29,3.96-15.22,6.62-23.34,8.4ZM1493.54,1600.98c-.09-1.2-.57-2.43-1.62-3.53-10.93-11.51-21.86-23.01-32.78-34.52,14.05,8.02,28.1,16.04,42.15,24.06,1.57.89,3.09.97,4.41.54-3,5.3-7.7,10.02-12.15,13.46ZM1508.76,1578.53c-.43-.54-.97-1.03-1.69-1.44-25.26-14.42-50.52-28.84-75.78-43.25,5.79-.09,11.54.29,17.02,1.13,12.47,1.91,24.91,5.34,35.95,11.56,9.81,5.52,20.32,14.27,23.83,25.41.7,2.2.88,4.41.66,6.6Z"/>
              </g>
              <g>
                <ellipse class="cls-5" cx="921.49" cy="1705.11" rx="165.69" ry="29.87"/>
                <ellipse class="cls-44" cx="916.47" cy="1526.23" rx="155.51" ry="17.83"/>
                <g>
                  <g>
                    <g>
                      <path class="cls-16" d="M927.04,1521.31c5.74-.66,10.53-4.54,13.45-9.37,3.19-5.28,4.12-11.5,4.53-17.56.97-14.37,1.45-28.8,2.03-43.19,1.06-25.9,1.96-51.91.95-77.83.41-2.2.75-4.49.35-6.59-.15-.77-.41-1.45-.76-2.06-.02-.4-.03-.81-.06-1.21-.05-.83-.94-.97-1.43-.57-3.19-2.73-8.87-3.05-12.68-3.53-6.37-.81-13.3-1.43-19.69-.49-2.84.41-5.78,1.45-7.5,3.89-1.7,2.4-1.71,5.39-1.74,8.21-.31,30.15-.45,60.3-.74,90.45-.07,7.48-.14,14.95-.22,22.43-.07,6.51-.06,13.13,1.67,19.46,2.6,9.51,11.04,19.21,21.84,17.98Z"/>
                      <path class="cls-11" d="M913.66,1368.56c6.77.95,13.77.7,20.49-.57,5.19-.98,13.25-2.2,13.7-8.77.2-2.86-.88-5.73-1.68-8.42-1.06-3.62-2.16-7.23-3.29-10.84-1.37-4.38-2.78-8.75-4.31-13.07-.81-3.87-1.83-7.7-3-11.52-1.47-4.76-3.92-13.84-10.87-11.51-2.63.88-4.42,3.29-5.73,5.61-1.7,3.02-2.97,6.35-4.36,9.52-2.76,6.29-5.29,12.7-6.97,19.37-.83,3.31-1.41,6.67-1.78,10.06-.2,1.86-.36,3.73-.79,5.55-.34,1.43-1.02,2.72-1.43,4.13-1.88,6.45,4.73,9.71,10,10.45Z"/>
                    </g>
                    <path class="cls-16" d="M925.28,1323.53c2.76.2,5.55-.76,7.57-2.67,2.22-2.1,3.02-5.15,3.31-8.09.58-5.99-.27-13.88-6.42-16.74-.13-.06-.25-.05-.35,0-2.21-1.32-5.05-1.69-7.45-.7-2.93,1.2-4.12,4.06-5,6.9-.94,3.01-1.64,6.21-1.46,9.37.31,5.46,3.81,11.53,9.81,11.95Z"/>
                  </g>
                  <g>
                    <g>
                      <path class="cls-16" d="M807.26,1590.57c5.27-2.37,8.66-7.52,9.97-13.01,1.44-6,.44-12.21-1.01-18.1-3.43-13.99-7.36-27.88-11.17-41.77-6.85-25-13.88-50.06-22.71-74.45-.28-2.22-.65-4.51-1.67-6.38-.38-.69-.83-1.26-1.35-1.73-.14-.38-.28-.76-.42-1.14-.3-.78-1.19-.64-1.54-.11-3.87-1.64-9.38-.21-13.15.48-6.32,1.16-13.1,2.68-18.91,5.5-2.58,1.26-5.07,3.13-5.97,5.98-.89,2.8,0,5.66.83,8.35,8.85,28.82,17.87,57.6,26.74,86.41,2.2,7.15,4.4,14.29,6.59,21.44,1.91,6.23,3.93,12.53,7.5,18.04,5.37,8.28,16.35,14.95,26.26,10.5Z"/>
                      <path class="cls-11" d="M748.16,1449.08c6.74-1.15,13.34-3.51,19.35-6.76,4.64-2.51,11.96-6.12,10.4-12.52-.68-2.78-2.58-5.19-4.15-7.52-2.11-3.13-4.25-6.24-6.42-9.33-2.63-3.76-5.3-7.5-8.07-11.15-1.95-3.44-4.08-6.79-6.35-10.06-2.84-4.09-7.93-12-13.85-7.67-2.24,1.64-3.22,4.48-3.76,7.09-.71,3.39-.91,6.95-1.27,10.4-.72,6.83-1.19,13.71-.76,20.57.21,3.41.68,6.78,1.36,10.13.37,1.83.79,3.66.93,5.53.11,1.46-.15,2.9-.11,4.36.16,6.72,7.46,7.82,12.7,6.92Z"/>
                    </g>
                    <path class="cls-16" d="M745.57,1402.65c2.69-.65,5.06-2.41,6.4-4.84,1.48-2.67,1.32-5.83.69-8.72-1.27-5.88-4.47-13.14-11.2-14-.14-.02-.25.03-.34.1-2.51-.59-5.33-.07-7.31,1.59-2.43,2.03-2.69,5.12-2.67,8.09.02,3.15.32,6.41,1.45,9.37,1.95,5.11,7.13,9.82,12.97,8.41Z"/>
                  </g>
                  <g>
                    <g>
                      <path class="cls-40" d="M872.08,1544c5.76-.47,10.67-4.19,13.75-8.92,3.36-5.17,4.49-11.36,5.11-17.4,1.45-14.33,2.39-28.74,3.45-43.1,1.91-25.85,3.66-51.82,3.51-77.75.48-2.19.9-4.46.56-6.57-.13-.78-.36-1.47-.69-2.08-.01-.41,0-.81-.02-1.22-.02-.83-.91-1-1.41-.62-3.1-2.84-8.77-3.34-12.55-3.95-6.34-1.02-13.24-1.86-19.66-1.14-2.85.32-5.82,1.26-7.62,3.64-1.77,2.34-1.89,5.33-2.01,8.15-1.3,30.12-2.43,60.25-3.72,90.38-.32,7.47-.63,14.94-.96,22.41-.28,6.51-.49,13.12,1.03,19.5,2.29,9.59,10.41,19.56,21.24,18.68Z"/>
                      <path class="cls-11" d="M863.73,1390.89c6.74,1.17,13.74,1.16,20.49.11,5.22-.81,13.32-1.76,13.98-8.32.29-2.85-.69-5.76-1.4-8.47-.94-3.65-1.92-7.3-2.93-10.94-1.22-4.43-2.49-8.84-3.88-13.21-.69-3.89-1.57-7.76-2.62-11.61-1.31-4.8-3.46-13.96-10.48-11.86-2.66.79-4.53,3.14-5.92,5.42-1.8,2.96-3.18,6.25-4.67,9.37-2.96,6.19-5.7,12.52-7.6,19.13-.94,3.28-1.63,6.62-2.11,10-.26,1.85-.48,3.72-.97,5.52-.38,1.42-1.11,2.69-1.57,4.08-2.09,6.39,4.41,9.86,9.65,10.78Z"/>
                    </g>
                    <path class="cls-40" d="M876.82,1346.27c2.76.29,5.57-.58,7.66-2.42,2.29-2.02,3.19-5.05,3.57-7.98.77-5.97.19-13.88-5.87-16.94-.13-.06-.25-.06-.35-.02-2.16-1.4-5-1.85-7.42-.95-2.97,1.1-4.25,3.92-5.23,6.73-1.04,2.97-1.84,6.15-1.77,9.32.13,5.47,3.43,11.64,9.41,12.27Z"/>
                  </g>
                  <g>
                    <g>
                      <path class="cls-31" d="M840.99,1560.8c5.5-1.79,9.41-6.55,11.31-11.87,2.07-5.81,1.73-12.09.93-18.11-1.92-14.28-4.34-28.51-6.65-42.73-4.15-25.58-8.47-51.25-14.64-76.44-.04-2.24-.16-4.55-.98-6.52-.3-.73-.69-1.34-1.15-1.87-.1-.39-.2-.79-.3-1.18-.21-.8-1.11-.76-1.52-.27-3.67-2.04-9.3-1.21-13.13-.93-6.4.48-13.32,1.26-19.39,3.45-2.7.97-5.37,2.58-6.57,5.31-1.18,2.69-.6,5.63-.06,8.39,5.73,29.6,11.62,59.17,17.37,88.77,1.42,7.34,2.85,14.68,4.27,22.02,1.23,6.39,2.57,12.88,5.53,18.73,4.45,8.8,14.66,16.61,24.99,13.24Z"/>
                      <path class="cls-11" d="M797.31,1413.81c6.83-.43,13.63-2.07,19.96-4.65,4.89-2,12.54-4.81,11.67-11.33-.38-2.84-2.01-5.44-3.33-7.92-1.77-3.33-3.56-6.65-5.39-9.96-2.22-4.02-4.47-8.02-6.84-11.94-1.57-3.63-3.33-7.18-5.24-10.68-2.39-4.37-6.61-12.77-12.95-9.11-2.4,1.39-3.68,4.11-4.49,6.65-1.06,3.3-1.64,6.82-2.37,10.2-1.44,6.71-2.64,13.5-2.95,20.37-.15,3.41-.05,6.82.27,10.22.18,1.86.4,3.73.34,5.59-.04,1.47-.46,2.87-.58,4.33-.55,6.7,6.58,8.57,11.89,8.24Z"/>
                    </g>
                    <path class="cls-31" d="M799.69,1367.36c2.75-.36,5.29-1.86,6.88-4.13,1.76-2.5,1.93-5.65,1.62-8.59-.63-5.98-3.04-13.55-9.64-15.12-.14-.03-.26,0-.35.06-2.43-.86-5.29-.64-7.44.8-2.63,1.76-3.22,4.8-3.52,7.76-.32,3.13-.36,6.41.45,9.47,1.39,5.29,6.04,10.53,12,9.75Z"/>
                  </g>
                  <g>
                    <g>
                      <path class="cls-31" d="M1017.08,1590.75c5.49,1.81,11.46.3,16.14-2.86,5.11-3.45,8.56-8.71,11.48-14.04,6.91-12.64,13.4-25.54,19.96-38.36,11.82-23.07,23.55-46.3,33.51-70.25,1.3-1.83,2.57-3.76,3.08-5.83.19-.76.24-1.49.18-2.19.15-.38.31-.75.46-1.13.3-.77-.44-1.28-1.06-1.12-1.75-3.82-6.77-6.49-10.03-8.53-5.44-3.41-11.47-6.87-17.66-8.71-2.75-.82-5.85-1.11-8.44.38-2.55,1.47-3.82,4.18-5.03,6.72-12.93,27.24-25.7,54.55-38.62,81.8-3.2,6.76-6.4,13.51-9.61,20.26-2.79,5.88-5.56,11.89-6.65,18.37-1.63,9.73,1.97,22.07,12.28,25.48Z"/>
                      <path class="cls-11" d="M1069.01,1446.48c5.75,3.7,12.21,6.42,18.83,8.08,5.12,1.29,12.95,3.56,16.12-2.21,1.38-2.51,1.6-5.57,2.01-8.35.55-3.73,1.07-7.47,1.56-11.22.6-4.55,1.15-9.11,1.57-13.67.88-3.85,1.57-7.76,2.11-11.71.67-4.93,2.25-14.21-5.04-15.01-2.76-.3-5.4,1.13-7.56,2.69-2.81,2.03-5.36,4.52-7.95,6.81-5.14,4.55-10.13,9.31-14.45,14.66-2.15,2.66-4.08,5.46-5.83,8.39-.96,1.6-1.89,3.24-3.04,4.71-.91,1.16-2.07,2.04-3.03,3.14-4.42,5.07.22,10.8,4.7,13.68Z"/>
                    </g>
                    <path class="cls-31" d="M1098.45,1410.47c2.43,1.34,5.36,1.64,7.99.75,2.9-.97,4.91-3.41,6.4-5.96,3.04-5.19,5.58-12.71,1.19-17.89-.09-.11-.21-.15-.32-.15-1.45-2.13-3.88-3.65-6.47-3.76-3.17-.14-5.44,1.96-7.43,4.16-2.11,2.34-4.09,4.95-5.25,7.89-2.01,5.09-1.37,12.06,3.89,14.96Z"/>
                  </g>
                  <g>
                    <g>
                      <path class="cls-17" d="M855.06,1635.42c5.72-.82,10.39-4.84,13.18-9.75,3.04-5.37,3.79-11.61,4.03-17.68.56-14.39.62-28.83.8-43.23.32-25.92.47-51.94-1.27-77.82.35-2.21.62-4.51.16-6.59-.17-.77-.45-1.44-.82-2.04-.03-.4-.06-.81-.09-1.21-.07-.83-.97-.95-1.45-.53-3.27-2.64-8.95-2.8-12.77-3.17-6.39-.63-13.33-1.04-19.69.07-2.83.49-5.73,1.61-7.39,4.1-1.63,2.45-1.56,5.44-1.51,8.26.55,30.15,1.27,60.29,1.84,90.44.14,7.47.28,14.95.42,22.42.12,6.51.31,13.13,2.23,19.4,2.87,9.44,11.59,18.89,22.34,17.35Z"/>
                      <path class="cls-11" d="M837.32,1483.11c6.8.75,13.79.31,20.46-1.15,5.16-1.13,13.18-2.58,13.45-9.16.12-2.86-1.05-5.7-1.92-8.37-1.17-3.59-2.37-7.17-3.59-10.74-1.49-4.34-3.02-8.67-4.68-12.94-.92-3.85-2.04-7.65-3.32-11.42-1.6-4.71-4.31-13.72-11.19-11.2-2.6.96-4.33,3.42-5.57,5.77-1.61,3.07-2.79,6.43-4.09,9.64-2.58,6.36-4.92,12.85-6.41,19.56-.74,3.34-1.22,6.71-1.49,10.11-.15,1.86-.25,3.74-.63,5.57-.3,1.44-.94,2.75-1.31,4.16-1.7,6.5,5.01,9.58,10.3,10.16Z"/>
                    </g>
                    <path class="cls-17" d="M847.65,1437.77c2.77.12,5.53-.92,7.49-2.89,2.16-2.16,2.88-5.24,3.07-8.19.41-6-.67-13.87-6.9-16.55-.13-.06-.25-.04-.35,0-2.24-1.26-5.1-1.54-7.47-.49-2.9,1.28-4,4.17-4.8,7.04-.85,3.03-1.46,6.25-1.19,9.41.46,5.45,4.14,11.41,10.14,11.67Z"/>
                  </g>
                  <g>
                    <g>
                      <path class="cls-17" d="M987.6,1627.13c5.69,1.01,11.39-1.35,15.57-5.15,4.56-4.15,7.23-9.85,9.35-15.54,5.03-13.5,9.6-27.19,14.26-40.82,8.39-24.52,16.67-49.2,23.09-74.33,1.02-2,2-4.09,2.21-6.22.08-.78.02-1.51-.14-2.19.09-.39.2-.79.29-1.18.19-.81-.62-1.2-1.21-.95-2.28-3.53-7.63-5.45-11.15-7-5.87-2.59-12.34-5.16-18.73-6.08-2.84-.41-5.95-.26-8.3,1.59-2.31,1.82-3.18,4.68-4.01,7.37-8.89,28.81-17.62,57.67-26.49,86.49-2.2,7.14-4.4,14.29-6.61,21.43-1.92,6.22-3.8,12.57-3.94,19.13-.22,9.86,5.11,21.56,15.81,23.45Z"/>
                      <path class="cls-11" d="M1018.31,1476.9c6.22,2.84,13,4.6,19.8,5.3,5.25.54,13.33,1.67,15.63-4.5,1-2.68.79-5.74.79-8.55.01-3.77-.01-7.55-.06-11.32-.06-4.59-.17-9.18-.41-13.76.32-3.94.45-7.9.41-11.89-.05-4.98.19-14.38-7.14-14.13-2.77.09-5.18,1.89-7.1,3.75-2.49,2.41-4.66,5.24-6.89,7.88-4.43,5.24-8.69,10.67-12.2,16.58-1.74,2.94-3.25,5.99-4.57,9.14-.72,1.72-1.4,3.47-2.34,5.09-.73,1.27-1.76,2.32-2.55,3.55-3.64,5.65,1.77,10.66,6.61,12.87Z"/>
                    </g>
                    <path class="cls-17" d="M1042.28,1437.05c2.59.98,5.54.85,8.02-.4,2.73-1.38,4.37-4.08,5.48-6.82,2.26-5.58,3.7-13.38-1.39-17.88-.11-.1-.23-.12-.34-.11-1.74-1.9-4.36-3.06-6.94-2.8-3.15.32-5.1,2.72-6.76,5.18-1.76,2.61-3.34,5.48-4.07,8.57-1.26,5.32.37,12.13,5.99,14.25Z"/>
                  </g>
                  <g>
                    <g>
                      <path class="cls-32" d="M890.12,1627.97c5.78-.09,10.92-3.48,14.31-8,3.7-4.94,5.23-11.04,6.24-17.03,2.39-14.21,4.28-28.52,6.28-42.78,3.6-25.67,7.06-51.46,8.61-77.36.62-2.15,1.19-4.39.99-6.52-.07-.78-.27-1.49-.55-2.12.02-.4.05-.81.06-1.21.03-.83-.84-1.06-1.37-.71-2.91-3.03-8.53-3.91-12.27-4.77-6.26-1.43-13.09-2.73-19.54-2.43-2.87.13-5.89.87-7.85,3.13-1.93,2.22-2.24,5.2-2.54,8-3.28,29.97-6.39,59.96-9.65,89.94-.81,7.43-1.62,14.86-2.43,22.29-.71,6.47-1.35,13.06-.25,19.53,1.65,9.72,9.1,20.2,19.96,20.04Z"/>
                      <path class="cls-11" d="M891.86,1474.64c6.65,1.61,13.63,2.06,20.44,1.46,5.26-.46,13.4-.88,14.5-7.38.48-2.82-.31-5.79-.84-8.55-.7-3.71-1.44-7.41-2.2-11.11-.93-4.5-1.9-8.98-3-13.43-.43-3.93-1.06-7.85-1.85-11.75-.99-4.88-2.53-14.16-9.68-12.53-2.7.62-4.73,2.84-6.26,5.02-1.99,2.84-3.59,6.03-5.28,9.04-3.36,5.99-6.52,12.12-8.84,18.59-1.15,3.22-2.06,6.5-2.76,9.84-.38,1.83-.72,3.68-1.33,5.44-.48,1.39-1.29,2.61-1.83,3.96-2.51,6.24,3.75,10.13,8.92,11.39Z"/>
                    </g>
                    <path class="cls-32" d="M907.86,1430.97c2.73.47,5.6-.21,7.8-1.91,2.42-1.87,3.52-4.83,4.09-7.73,1.16-5.9,1.1-13.84-4.74-17.29-.13-.07-.24-.08-.35-.04-2.07-1.53-4.86-2.18-7.34-1.44-3.04.91-4.5,3.63-5.66,6.37-1.23,2.9-2.24,6.01-2.37,9.18-.23,5.47,2.66,11.85,8.58,12.86Z"/>
                  </g>
                  <g>
                    <g>
                      <path class="cls-32" d="M957.64,1559.7c5.78-.09,10.92-3.48,14.31-8,3.7-4.94,5.23-11.04,6.24-17.03,2.39-14.21,4.28-28.52,6.28-42.78,3.6-25.67,7.06-51.46,8.61-77.36.62-2.15,1.19-4.39.99-6.52-.07-.78-.27-1.49-.55-2.12.02-.4.05-.81.06-1.21.03-.83-.84-1.06-1.37-.71-2.91-3.03-8.53-3.91-12.27-4.77-6.26-1.43-13.09-2.73-19.54-2.43-2.87.13-5.89.87-7.85,3.13-1.93,2.22-2.24,5.2-2.54,8-3.28,29.97-6.39,59.96-9.65,89.94-.81,7.43-1.62,14.86-2.43,22.29-.71,6.47-1.35,13.06-.25,19.53,1.65,9.72,9.1,20.2,19.96,20.04Z"/>
                      <path class="cls-11" d="M959.37,1406.38c6.65,1.61,13.63,2.06,20.44,1.46,5.26-.46,13.4-.88,14.5-7.38.48-2.82-.31-5.79-.84-8.55-.7-3.71-1.44-7.41-2.2-11.11-.93-4.5-1.9-8.98-3-13.43-.43-3.93-1.06-7.85-1.85-11.75-.99-4.88-2.53-14.16-9.68-12.53-2.7.62-4.73,2.84-6.26,5.02-1.99,2.84-3.59,6.03-5.28,9.04-3.36,5.99-6.52,12.12-8.84,18.59-1.15,3.22-2.06,6.5-2.76,9.84-.38,1.83-.72,3.68-1.33,5.44-.48,1.39-1.29,2.61-1.83,3.96-2.51,6.24,3.75,10.13,8.92,11.39Z"/>
                    </g>
                    <path class="cls-32" d="M975.37,1362.71c2.73.47,5.6-.21,7.8-1.91,2.42-1.87,3.52-4.83,4.09-7.73,1.16-5.9,1.1-13.84-4.74-17.29-.13-.07-.24-.08-.35-.04-2.07-1.53-4.86-2.18-7.34-1.44-3.04.91-4.5,3.63-5.66,6.37-1.23,2.9-2.24,6.01-2.37,9.18-.23,5.47,2.66,11.84,8.58,12.86Z"/>
                  </g>
                  <g>
                    <g>
                      <path class="cls-35" d="M833.59,1671.99c5.61-1.4,9.85-5.87,12.11-11.05,2.48-5.65,2.58-11.94,2.2-18-.91-14.38-2.33-28.74-3.63-43.09-2.34-25.81-4.84-51.72-9.23-77.28.12-2.24.16-4.55-.52-6.58-.25-.75-.6-1.39-1.02-1.94-.08-.4-.14-.8-.22-1.2-.16-.82-1.06-.84-1.49-.38-3.52-2.29-9.19-1.86-13.03-1.85-6.42.03-13.37.33-19.58,2.08-2.76.78-5.54,2.19-6.93,4.83-1.37,2.6-.99,5.57-.65,8.37,3.63,29.93,7.43,59.84,11.08,89.77.9,7.42,1.81,14.84,2.71,22.26.78,6.47,1.66,13.02,4.2,19.07,3.83,9.09,13.46,17.6,24,14.97Z"/>
                      <path class="cls-11" d="M800.36,1522.3c6.84.05,13.74-1.1,20.24-3.24,5.01-1.65,12.85-3.91,12.44-10.49-.18-2.86-1.62-5.57-2.76-8.13-1.53-3.45-3.09-6.89-4.67-10.31-1.93-4.17-3.9-8.31-5.98-12.4-1.31-3.73-2.82-7.4-4.48-11.02-2.07-4.53-5.69-13.21-12.28-9.99-2.49,1.22-3.96,3.84-4.95,6.31-1.29,3.21-2.12,6.68-3.08,10.01-1.91,6.59-3.58,13.28-4.37,20.11-.39,3.39-.53,6.8-.45,10.21.04,1.87.13,3.74-.06,5.6-.15,1.46-.66,2.83-.88,4.28-1.02,6.64,5.96,9.01,11.28,9.06Z"/>
                    </g>
                    <path class="cls-35" d="M806,1476.14c2.77-.17,5.41-1.48,7.16-3.64,1.93-2.37,2.32-5.5,2.22-8.46-.21-6.01-2.08-13.73-8.56-15.76-.14-.04-.25-.02-.35.04-2.36-1.02-5.23-1.01-7.48.27-2.75,1.57-3.55,4.56-4.06,7.49-.54,3.1-.81,6.37-.22,9.48,1.02,5.37,5.29,10.93,11.28,10.57Z"/>
                  </g>
                  <g>
                    <g>
                      <path class="cls-1" d="M949.91,1613.88c5.69,1.02,11.39-1.33,15.57-5.12,4.57-4.14,7.24-9.84,9.37-15.52,5.05-13.49,9.64-27.18,14.33-40.8,8.43-24.51,16.76-49.17,23.22-74.29,1.02-1.99,2.01-4.09,2.22-6.21.08-.78.02-1.51-.13-2.19.09-.39.2-.79.29-1.18.19-.81-.62-1.2-1.21-.96-2.27-3.53-7.62-5.47-11.13-7.02-5.87-2.6-12.33-5.18-18.72-6.12-2.84-.42-5.95-.27-8.3,1.57-2.31,1.81-3.19,4.68-4.02,7.37-8.94,28.8-17.72,57.64-26.64,86.44-2.21,7.14-4.42,14.28-6.64,21.42-1.93,6.22-3.82,12.56-3.98,19.12-.23,9.86,5.07,21.57,15.77,23.48Z"/>
                      <path class="cls-11" d="M980.87,1463.7c6.22,2.85,12.99,4.62,19.79,5.33,5.25.55,13.33,1.69,15.64-4.47,1.01-2.68.8-5.74.81-8.55.02-3.77,0-7.55-.04-11.32-.05-4.59-.15-9.18-.38-13.76.33-3.94.46-7.9.43-11.89-.04-4.98.21-14.38-7.11-14.15-2.77.09-5.18,1.89-7.1,3.73-2.49,2.4-4.67,5.23-6.91,7.87-4.44,5.23-8.71,10.65-12.23,16.56-1.75,2.94-3.26,5.98-4.59,9.13-.72,1.72-1.41,3.47-2.35,5.09-.73,1.27-1.76,2.31-2.55,3.54-3.65,5.64,1.75,10.66,6.59,12.88Z"/>
                    </g>
                    <path class="cls-1" d="M1004.91,1423.9c2.59.98,5.54.86,8.02-.39,2.73-1.37,4.37-4.07,5.49-6.81,2.27-5.57,3.72-13.37-1.36-17.88-.11-.1-.22-.12-.34-.11-1.74-1.9-4.36-3.06-6.93-2.81-3.15.31-5.11,2.71-6.77,5.17-1.76,2.61-3.35,5.48-4.08,8.56-1.27,5.32.35,12.13,5.97,14.26Z"/>
                  </g>
                  <g>
                    <g>
                      <path class="cls-7" d="M938.19,1658.33c5.74-.66,10.53-4.54,13.45-9.37,3.19-5.28,4.12-11.5,4.53-17.56.97-14.37,1.45-28.8,2.03-43.19,1.06-25.9,1.96-51.91.95-77.83.41-2.2.75-4.49.35-6.59-.15-.77-.41-1.45-.76-2.06-.02-.4-.03-.81-.06-1.21-.05-.83-.94-.97-1.43-.57-3.19-2.73-8.87-3.05-12.68-3.53-6.37-.81-13.3-1.43-19.69-.49-2.84.41-5.78,1.45-7.5,3.89-1.7,2.4-1.71,5.39-1.74,8.21-.31,30.15-.45,60.3-.74,90.45-.07,7.48-.14,14.95-.22,22.43-.07,6.51-.06,13.13,1.67,19.46,2.6,9.51,11.04,19.21,21.84,17.98Z"/>
                      <path class="cls-11" d="M924.81,1505.58c6.77.95,13.77.7,20.49-.57,5.19-.98,13.25-2.2,13.7-8.77.2-2.86-.88-5.73-1.68-8.42-1.06-3.62-2.16-7.23-3.29-10.84-1.37-4.38-2.78-8.75-4.31-13.07-.81-3.87-1.83-7.7-3-11.52-1.47-4.76-3.92-13.84-10.87-11.51-2.63.88-4.42,3.29-5.73,5.61-1.7,3.02-2.97,6.35-4.36,9.52-2.76,6.29-5.29,12.7-6.97,19.37-.83,3.31-1.41,6.67-1.78,10.06-.2,1.86-.36,3.73-.79,5.55-.34,1.43-1.02,2.72-1.43,4.13-1.88,6.45,4.73,9.71,10,10.45Z"/>
                    </g>
                    <path class="cls-7" d="M936.43,1460.55c2.76.2,5.55-.76,7.57-2.67,2.22-2.1,3.02-5.15,3.31-8.09.58-5.99-.27-13.88-6.42-16.74-.13-.06-.25-.05-.35,0-2.21-1.32-5.05-1.69-7.45-.7-2.93,1.2-4.12,4.06-5,6.9-.94,3.01-1.64,6.21-1.46,9.37.31,5.46,3.81,11.53,9.81,11.95Z"/>
                  </g>
                </g>
                <path class="cls-7" d="M916.47,1544.06c-85.83,0-155.42-7.97-155.5-17.81l-1.81-.02s-.41,15.67,1.11,34.94c.73,9.28,5.56,16.67,10.64,18.6,12.89,4.9,10.7,106.19,25.62,127.2,14.92,21.01,214.67,14.65,236.79.3,22.12-14.35,16.45-115.04,21.43-123.33,4.98-8.29,9.52-5.92,12.8-26.48,2.33-14.61,2.67-24.2,2.68-28.54-11.3,8.57-75.83,15.14-153.75,15.14Z"/>
                <path class="cls-37" d="M837.13,1587.12c-61.38-2.53-73.92-16.45-75.01-17.82,2.01,5.26,5.32,9.15,8.79,10.47,4.25,1.61,6.85,13.68,8.98,29.89,47.58-8.8,124.62-8.25,173.97.87,49.92,9.22,81.51,36.16,95.05,50.2,3.71-33.04,2.83-71.78,5.84-76.79,3.98-6.62,7.67-6.46,10.67-16.58-36.68,25.06-164.8,22.36-228.28,19.76Z"/>
              </g>
            </g>
            <g>
              <g>
                <g>
                  <path class="cls-24" d="M1433.97,1015.09s-83.96,44.95-124.48,56.88c-40.53,11.93-235.69,65.82-218.95,149.11,0,0,20.03,37.55,53.64,44.9,33.61,7.36,157.11-84.25,269.76-58.51l20.03-192.39Z"/>
                  <path class="cls-35" d="M1307.43,1163.25c-17.32-12.9-20.41-26.95-26.75,4.11-7.54,36.97-99.83,79.24-119.5,48.32-14.96-23.52-52.02-22.77-68.93-21.07-2.82,8.45-3.56,17.28-1.71,26.47,0,0,20.03,37.55,53.64,44.9,31.99,7,145.41-75.64,253.41-61.43l-18.07-71.89c-5.08,32.18-41.29,53.51-72.08,30.59Z"/>
                </g>
                <g>
                  <path class="cls-6" d="M1155.87,1236.68c-9.38-26.27-32.25-29.63-43.39-29.62-3.46,0-6.76,1.59-8.78,4.4-13.63,18.96-51.45,33.45-72.19,41.95-21.94,8.99-36.89,14.49-33.23,23.79,3.67,9.3,41.56-5.54,41.56-5.54-12.16,5.49-63.97,34.71-53.21,49.66,6.26,8.7,40.52-11.47,40.52-11.47-20.32,19.52-27.58,43.69-15.93,44.34,11.65.65,30.64-22.25,30.64-22.25-13.16,18.31-12.73,35.94,3.02,30.01,8.89-3.35,48.76-65.15,54.8-63.72,6.04,1.43,7.34,40,17.28,38.27,9.95-1.73,11.41-21.14,12.92-43.42,1.13-16.67,16.29-36,23.83-44.67,2.8-3.22,3.58-7.72,2.15-11.74Z"/>
                  <path class="cls-29" d="M1063.5,1303.72c-1.59,1.7-3.12,3.52-5,4.9-1.66,1.21-3.35,2.48-4.84,3.9-3.25,3.11-6.16,6.73-9.03,10.18-5.2,6.25-10.55,13.96-13.23,21.68-2.31,6.64-1.7,15.56,5.09,19.45,3.79,2.17,9.71,1.37,10.62-3.47.09-.48-.44-.79-.81-.46-1.5,1.32-4.04,2.36-6.05,2.26-3.54-.18-5.42-3.38-5.88-6.59-.46-3.18,1.31-6.67,2.67-9.46,1.44-2.95,2.94-5.87,4.62-8.7,3.35-5.66,7.18-11.08,11.01-16.42,1.86-2.59,3.9-5.04,5.51-7.79,1.85-3.16,3.67-5.97,6.01-8.8.39-.47-.26-1.13-.69-.67Z"/>
                  <path class="cls-29" d="M1048.5,1294.67c-8.71,2.75-15.97,9.15-22.61,15.29-6.46,5.98-12.33,12.54-17.4,19.74-4.37,6.21-10.1,14.45-5.61,22.13,4.11,7.03,15.62,4.68,19.37-1.44.15-.24,0-.61-.31-.61-3.54.11-7.18,2.31-10.69,1.43-3.13-.79-4.13-4.54-3.53-7.32.78-3.66,3.44-6.95,5.54-9.94,2.1-2.99,4.35-5.86,6.62-8.73,4.37-5.51,9.19-10.67,14.33-15.47,5.07-4.74,10.61-8.77,15.2-13.97.54-.62-.29-1.31-.91-1.12Z"/>
                  <path class="cls-29" d="M1042.36,1269.7c-1.62-.56-4.39.92-5.95,1.36-.86.24-1.7.5-2.54.81-2.24.83-4.42,1.88-6.57,2.92-4.21,2.02-8.27,4.38-12.22,6.87-7.79,4.91-15.03,10.5-21.63,16.92-5.54,5.39-13,12.28-10.06,20.85.83,2.43,2.46,4.43,4.88,5.39,1.97.78,3.64-.09,5.6-.31,3.84-.42,6.97-1.69,10.38-3.5.3-.16.11-.6-.21-.48-2.77,1.03-8.34,3.54-10.85,1.23-3-2.76-3.14-6.73-.97-9.92,3.93-5.77,10.11-10.4,15.36-14.91,5.62-4.83,11.5-9.32,17.77-13.28,3.1-1.96,6.2-3.96,9.38-5.79,1.55-.89,2.98-1.89,4.48-2.84,1.63-1.03,3.39-1.49,4.38-3.22.65-1.14-.32-1.78-1.22-2.09Z"/>
                </g>
              </g>
              <g>
                <g>
                  <g>
                    <path class="cls-17" d="M1476.47,1187.94c-5.38-2.11-11.43-.91-16.27,1.99-5.29,3.17-9.02,8.24-12.22,13.4-7.58,12.25-14.75,24.78-22,37.23-13.04,22.4-26.01,44.97-37.24,68.35-1.39,1.76-2.77,3.62-3.39,5.66-.23.75-.31,1.48-.29,2.17-.17.37-.35.73-.52,1.1-.34.76.37,1.3,1,1.17,1.54,3.91,6.41,6.84,9.55,9.05,5.25,3.7,11.09,7.48,17.17,9.64,2.7.96,5.79,1.42,8.45.07,2.62-1.33,4.04-3.97,5.38-6.44,14.38-26.5,28.6-53.09,42.96-79.6,3.56-6.57,7.12-13.15,10.69-19.72,3.11-5.72,6.19-11.58,7.62-17.98,2.15-9.63-.78-22.14-10.9-26.1Z"/>
                    <path class="cls-11" d="M1416.85,1329.22c-5.54-4-11.84-7.06-18.37-9.08-5.04-1.56-12.74-4.26-16.21,1.34-1.51,2.43-1.9,5.48-2.46,8.23-.75,3.7-1.47,7.4-2.16,11.11-.84,4.51-1.64,9.03-2.3,13.57-1.09,3.8-1.99,7.66-2.74,11.58-.93,4.89-3.01,14.06,4.22,15.26,2.74.45,5.45-.84,7.69-2.28,2.91-1.87,5.6-4.22,8.31-6.37,5.38-4.27,10.62-8.75,15.22-13.86,2.28-2.54,4.37-5.23,6.28-8.07,1.04-1.55,2.06-3.13,3.29-4.54.97-1.11,2.18-1.93,3.19-2.98,4.68-4.82.36-10.8-3.95-13.92Z"/>
                  </g>
                  <path class="cls-17" d="M1385.52,1363.59c-2.35-1.47-5.26-1.92-7.94-1.18-2.94.82-5.08,3.14-6.71,5.61-3.31,5.02-6.25,12.39-2.15,17.8.09.12.2.16.31.17,1.33,2.2,3.68,3.85,6.25,4.11,3.15.31,5.54-1.66,7.65-3.76,2.23-2.22,4.35-4.72,5.67-7.6,2.28-4.97,2.02-11.97-3.08-15.15Z"/>
                </g>
                <g>
                  <path class="cls-24" d="M1738.5,1102.68s119.14,193.79,0,262.28c-126.31,72.61-231.82,1.55-240.62-31.82-8.79-33.37,5.89-60.63,18.43-58.91,12.53,1.72,101.16,4.97,121.71-7.82,20.56-12.79,20.29-45.19,20.29-45.19,0,0,37.13-130.62,80.18-118.53Z"/>
                  <path class="cls-30" d="M1651.29,1267.91c-5.33-2.01-10.32-2.56-16.01-2.36-5.18.18-10.36.42-15.54.64-11.03.46-22.04,1.27-33.07,1.86-10.62.57-21.21,1.58-31.82,2.38-4.94.37-9.87.86-14.8,1.36-6.72.68-13.01,2.32-19.65,3.39-.88.14-.83,1.5.07,1.56,5.3.38,10.45,1.51,15.78,1.57,5.81.07,11.61.14,17.42.06,11.04-.15,22.09-.1,33.13-.5,10.61-.39,21.23-.59,31.84-1.05,10.72-.46,22.53.36,32.36-4.4,1.65-.8,2.51-3.68.3-4.51Z"/>
                </g>
                <path class="cls-6" d="M1515.44,1278.42s14.99,43.49-13.63,59.7c0,0-42.9,13.32-60.91,0,0,0-24.37-4.63-13.91-18.62,0,0-26.71,1.14-22.39-14.96,0,0-15.31,8.41-21.06,4.37-2.16-1.52-9.03-16.69,34.46-36.95,43.49-20.26,66.15,6.45,97.43,6.45Z"/>
              </g>
              <g>
                <path class="cls-29" d="M1510.53,1084.54s6.54,33.19,99.26,6.08c92.72-27.11,32.73-82.28,33.55-81.6.83.68-132.81,75.52-132.81,75.52Z"/>
                <g>
                  <path class="cls-34" d="M1701.24,992.3c1.17-.1,85.66-12.77,102.83-51.23,17.17-38.46-12.62-44.97-12.62-44.97,0,0,27.86-18.35,28.53-47.65.66-29.3-24.43-35.24-24.43-35.24,0,0,20.03-21.58,6.87-43.19-13.16-21.61-27.01-14.6-27.01-14.6,0,0,20.19-52.99-14.8-71.88-34.99-18.89-61.68,4.53-61.68,4.53,0,0,6.69-46.36-28.45-56.65-35.14-10.28-70.95-5.23-85.9,21.99,0,0-12.58-26.93-47.87-19.57-43.75,9.12-77.99,47.64-83.36,99.9-5.37,52.26-12.41,90.45-12.41,90.45,0,0,114.84,181.15,260.3,168.12Z"/>
                  <path class="cls-22" d="M1791.46,896.1s20.65-13.61,26.81-36.11c-9.15,8.87-20.63,15.6-33.81,14.06-7.46-.87-14.5-4.35-18.57-10.84-3.12-4.96-4.37-11.3-2.64-16.92.57-1.24,1.11-2.5,1.59-3.81,1.58-4.34-5.1-7.54-7.41-3.45-.69,1.23-1.25,2.5-1.73,3.79-5.14,9.78-17.2,16.46-28,15.54-10.81-.91-20.68-9.11-24.06-19.33-3.85-11.64.79-24.3-1.7-36.21-2.63-12.6-13.88-20.04-26.29-20.56-14.97-.62-28.63,7.54-42.59,11.74-14.42,4.34-29.36,6.64-44.43,6.6-27.4-.08-54.74-8.47-76.59-25.19-26.33-20.14-42.55-50.18-41.77-85.45.07-3.02.32-6.04.7-9.04,0,0-67.95,40.66-55.91,94.85s34.66,61.17,34.66,61.17c29.41,41.02,129.73,166.26,251.53,155.35,1.17-.1,85.66-12.77,102.83-51.23,17.17-38.46-12.61-44.97-12.61-44.97Z"/>
                  <path class="cls-22" d="M1698.12,732.9c-.1-.68-.32-1.25-.59-1.88-.44-1.03-.91-2.06-1.45-3.04-.65-1.18-1.4-2.31-2.24-3.36-2.34-2.91-5.28-5.09-8.64-6.68-3.13-1.48-6.63-2.02-10.09-1.93,1.27-9.05-4.13-18.98-9.45-25.91-6.81-8.87-15.98-15.66-26.59-19.22-9.71-3.25-20.28-3.26-30.18-.88-10.96,2.64-19.86,8.37-26.37,17.57-.81,1.15.69,2.49,1.78,1.66,14.72-11.23,36.02-16.66,53.42-8.75,8.12,3.69,14.92,9.5,19.95,16.85,2.28,3.33,4,7.02,5.56,10.73,1.36,3.24,2.26,6.38,3.71,9.42-2.39.91-4.56,2.32-5.77,4.56-.91,1.68-.21,4.07,1.99,4.18,3.92.19,7.64-1.33,11.55-.63,2.48.44,4.9,1.53,7.03,3.13,1.75,1.33,2.79,2.52,3.88,4.06.48.69,1.16,1.83,1.4,2.31.25.5,1.16,2.29,1.66,3.03,1.03,1.52,1.81,2.06,3.46,2.91,1.59.82,3.72-.15,4.7-1.46.47-1.73.95-3.45,1.42-5.18-.05-.49-.1-.99-.14-1.48Z"/>
                  <path class="cls-22" d="M1574.07,762.94c-2.29-.93-2.28-1.05-4-1.18-.81-.06-1.65-.17-2.45-.36-.96-.22-1.94-.53-2.88-.82-.22-.07-2.36-.67-2.37-.9,0-.04.89.47.35.15-.17-.1-.35-.18-.52-.28-.45-.25-.88-.52-1.31-.8-3.43-2.23-5.3-5.7-6.98-9.28,1.22-.41,2.37-1.01,3.4-1.87,1.37-1.15,1.06-3.34-.34-4.29-3.27-2.22-7.37-2.47-11.18-3.45-2.72-.7-5.27-1.74-7.72-3.12-4.97-2.81-9.36-6.96-12.03-12.04-6.43-12.23-3.45-26.41,3.73-37.6.99-1.54-1.05-3.61-2.59-2.56-13.22,9.09-16.26,28.79-9.75,42.86,3.31,7.16,8.86,13.13,15.58,17.22,3.48,2.12,8.36,4.43,13.15,5.24-.81,9.27,7.22,17.83,15.76,20.49,2.97.92,6.36,1,9.42.45,1.99-.36,4.16-1.36,5.31-3.07.35-.52.54-1,.62-1.62.3-2.26-1.18-2.34-3.22-3.17Z"/>
                </g>
                <path class="cls-6" d="M1748.39,965.55c-21.93-27.34-45.68,0-45.68,0-35.35,17.65-69.73,22.6-44.36-40.53,25.37-63.14-13.83-64.73-86.89-66.49-73.06-1.76-124.64-71.52-124.64-71.52-17.95,28.9-24.69,61.59-27.22,81.73-1.51,11.99-5.52,23.52-11.66,33.93-14.07,23.86-18.97,50.66-13.82,82.56,6.16,38.21,41.72,106.81,125.79,105.33,84.06-1.48,152.33-70.88,152.33-70.88,0,0,19.95,22.12,48.99,12.27,16-5.42,49.09-39.07,27.15-66.41Z"/>
                <path class="cls-7" d="M1427.38,968.02s33.83,33.3,95.44,27.9c0,0-.26,44.96-48.8,45.83-48.53.87-46.65-73.73-46.65-73.73Z"/>
                <path class="cls-34" d="M1579.61,930.18c-.16-1.66-.48-3.27-.96-4.87-1.21-4.04-3.17-7.97-5.82-11.27-4.19-5.2-10.16-8.89-16.51-10.81-5.08-1.54-14.02-3.06-17.56,2.22-2.28,3.41-.49,6.98,2.51,9.13,3.06,2.2,6.17,4.33,9.21,6.56,6.9,5.06,13.86,10.02,20.81,14.99,1.39.99,3.03,1.38,4.59.7.65.35,1.57.31,1.99-.35.77-1.19,1.79-2.26,1.88-3.74.05-.84-.07-1.73-.15-2.56Z"/>
                <path class="cls-34" d="M1475.76,869.75c-1.81-2.67-4.89-4.77-7.65-6.34-5.75-3.27-12.1-4.88-18.7-4.92-3.04-.02-6.05.42-8.97,1.25-1.85.53-3.74,1.15-5.45,2.05-1.53.8-3.45,1.87-3.81,3.69-.12.62.01,1.39.39,1.97.04,2.2,1.65,4.01,3.82,4.59,2.93.78,5.94,1.24,8.87,2.02,3.15.84,6.27,1.87,9.32,3.01,3.32,1.24,6.48,2.76,9.68,4.27,3.35,1.58,7.3,2.53,10.65.33,4.19-2.74,4.52-7.99,1.85-11.93Z"/>
                <path class="cls-18" d="M1718.83,1007.69c-.66,0-1.32-.23-1.85-.7-9.92-8.74-23.75-4.26-23.89-4.21-1.12.37-2.36,0-3.09-.92-.73-.93-.8-2.22-.17-3.22,11.49-18.36,38.15-15.1,39.29-14.96,1.53.2,2.62,1.61,2.42,3.14-.2,1.53-1.55,2.63-3.14,2.42-.2-.03-17.76-2.14-28.84,6.79,5.96-.34,14.2.65,21.14,6.76,1.16,1.02,1.27,2.8.25,3.96-.55.63-1.33.95-2.1.95Z"/>
                <path class="cls-34" d="M1548.85,956.36c-1.12,0-2.17-.67-2.61-1.78-7.34-18.66-28.22-12.54-29.11-12.27-1.48.45-3.05-.39-3.5-1.87-.45-1.48.39-3.05,1.87-3.5,9.21-2.81,28.59-3.16,35.96,15.58.57,1.44-.14,3.07-1.58,3.64-.34.13-.68.2-1.03.2Z"/>
                <path class="cls-34" d="M1455.59,916.24c-1.05,0-2.06-.59-2.54-1.6-2.96-6.23-6.87-10.18-11.63-11.74-6.97-2.27-13.7,1.3-13.77,1.34-1.35.73-3.06.24-3.8-1.12-.74-1.36-.25-3.05,1.1-3.8.36-.2,8.83-4.77,18.14-1.77,6.32,2.04,11.37,6.98,15.03,14.69.67,1.4.07,3.07-1.33,3.74-.39.18-.8.27-1.2.27Z"/>
                <path class="cls-18" d="M1454.31,965.51c-.62,0-1.24-.2-1.75-.62-3.56-2.86-6.62-7.11-9.09-12.64-2.67-5.98-.09-13.15,5.76-15.98,14.52-7.03,18.64-17.94,18.67-18.05.53-1.45,2.13-2.21,3.59-1.68,1.45.52,2.21,2.11,1.7,3.57-.19.53-4.81,13.12-21.51,21.21-3.15,1.53-4.54,5.4-3.09,8.64,2.1,4.71,4.62,8.26,7.48,10.55,1.21.97,1.4,2.73.43,3.94-.56.69-1.37,1.05-2.19,1.05Z"/>
              </g>
            </g>
            <g>
              <g>
                <g>
                  <path class="cls-39" d="M405.48,1171.33l25.44,67.63s87.94,53.86,128.7,14.8c40.76-39.06-51.55-110.31-51.55-110.31l-102.59,27.88Z"/>
                  <path class="cls-21" d="M473.24,1144.1l34.84,80.05-98.31-18.44s-17.31-51.24,63.48-61.61Z"/>
                  <g>
                    <path class="cls-39" d="M540.23,1131.74s74.68,92.2,12.26,128.3c-62.42,36.1-86.39-109.67-86.39-109.67,0,0-35.89-68.84-25.39-77.78,10.5-8.94,30.06,23.39,30.06,23.39,0,0,34.43-87.86,42.94-92.24,8.51-4.39,4.82,42.48,4.82,42.48,0,0,16.26-43.11,27.98-42.77,11.72.34-12.8,60.33-12.8,60.33,0,0,27.63-50.46,35.94-42.49,8.31,7.97-23.15,74.69-23.15,74.69,0,0,22.94-20.18,30.07-8.42,7.13,11.76-36.34,44.18-36.34,44.18Z"/>
                    <path class="cls-27" d="M549.12,1002.43c-4.93-2.44-10.1,1.37-13.21,4.95-4.01,4.61-7.47,9.82-10.55,15.09-2.95,5.06-5.52,10.33-7.56,15.82-1.09,2.94-2.12,5.93-2.94,8.96-.68,2.53-1.88,5.8-1.35,8.41.19.94,1.46,1.48,2.11.6,1.35-1.83,1.75-4.34,2.45-6.48.9-2.74,1.77-5.48,2.83-8.16,1.95-4.95,4.17-9.81,6.72-14.48,2.37-4.36,5.04-8.55,7.97-12.56,3.17-4.33,6.6-9.87,12.69-8.51,2.25.5,2.6-2.78.84-3.65Z"/>
                    <path class="cls-27" d="M569.48,1019.65c-10.02-2.53-17.3,8.83-22.22,15.71-3.01,4.21-5.89,8.56-8.42,13.07-1.26,2.25-2.44,4.58-3.53,6.92-1.03,2.22-2.29,5.13-1.93,7.61.02.13.19.2.3.13,1.59-1.03,2.77-2.96,3.76-4.54,1.4-2.24,2.64-4.58,4.02-6.84,2.47-4.04,4.91-8.07,7.67-11.93,2.58-3.62,5.27-7.18,8.16-10.55,2.88-3.36,6.69-6.77,11.46-5.58,2.54.63,3.27-3.36.74-4Z"/>
                  </g>
                </g>
                <g>
                  <g>
                    <g>
                      <path class="cls-27" d="M225.68,1270.6s7.67,78.25,97.33,64.58c71.46-10.89,170.52-186.85,170.52-186.85,0,0,34.42-59.72,35.13-70.67.71-10.95-10.01-17.77-23.3,7.77,0,0,20.49-84.14-9.54-35,0,0,4.37-36.79-8.07-39.05-12.43-2.25-18.51,62.75-18.51,62.75,0,0,2.1-55.9-11.1-55.68-13.2.22-18.29,71.26-18.29,71.26,0,0-7.36-19.43-16.08-20.52-8.72-1.09-.33,37.45,0,45.22.33,7.77-83.27,94.47-83.27,94.47l-32.99-19.9-81.82,81.63Z"/>
                      <path class="cls-39" d="M512.76,1035.82c-.92-2.02-3.2-3.3-5.39-3.24-5.24.13-8,6.4-9.89,10.39-2.55,5.39-4.76,11.02-6.4,16.76-1.87,6.53-3.5,13.35-3.36,20.16.02,1.12,1.69,1.58,2.04.38,2.68-9.32,4.66-18.72,8.36-27.74,1.7-4.14,3.58-8.36,5.84-12.22.94-1.61,2.94-4.38,4.92-2.68,1.95,1.67,1.62,4.21,1.55,6.52-.03,1.04,1.35,1.1,1.69.24,1.03-2.58,1.86-5.89.63-8.56Z"/>
                      <path class="cls-39" d="M487,1009.52c-7.41-.67-9.89,7.56-11.31,13.17-4.23,16.62-7.28,33.98-5.95,51.15.07.87,1.39.85,1.51,0,1.85-13.05,3.2-26.2,5.89-39.12.61-2.92,1.27-5.83,1.99-8.72.76-3.04,1.35-6.55,2.95-9.28,1.59-2.71,4.72-4.42,7.18-1.81,1.86,1.98,2.54,4.86,4.11,7.06.43.61,1.25.22,1.39-.4,1.12-5-2.3-11.57-7.75-12.06Z"/>
                    </g>
                    <path class="cls-39" d="M307.51,1171.33l-39.29,34.38,21.64,18.31c10.1,8.55,24.97,8.27,34.74-.64l15.9-14.5-32.99-37.54Z"/>
                  </g>
                  <path class="cls-17" d="M173.15,1106.13s3.99-76.07,58.94-86.17c54.95-10.1,108.41,168.06,108.41,168.06,0,0-98.88,63.97-112.36,94.1l6.28,15.73s-51.62,21.1-61.28-191.73Z"/>
                </g>
              </g>
              <g>
                <g>
                  <g>
                    <path class="cls-36" d="M121.03,758.36s-90.84,15.51-112.81-34.35c-10.11-30.6,28.26-52.86,37.59-51.94,0,0-30.79-66.96,35.49-58.81,0,0-8.23-46.38,31.57-61.7,39.8-15.32,58.31,17.67,58.31,17.67,0,0-.54-39.26,35.01-38.86,35.55.4,53.52,36.66,33.6,115.61l-118.76,112.39Z"/>
                    <path class="cls-33" d="M121.03,758.36l118.76-112.39c1.82-7.23,3.33-14.1,4.53-20.61,2.51-13.64-12.44-24.19-24.25-16.93-.08.05-.16.1-.24.15-7.05,4.43-11.83,11.73-15.12,19.5-3.84-13.95-14.43-25.69-28.03-31.22-17.67-7.19-37.4-.76-49.53,13.45-6.13,7.18-10.61,16.71-10.89,26.31-11.31-.57-22.73,3.72-29.9,12.74-7.02,8.82-8.93,20.54-5.96,31.22-10.33,2.86-20.58,6.94-28.53,14.31-7.62,7.07-12.57,17.63-11.54,28.16,0,0,0,0,0,.01-.07,3.39.29,6.82,1.12,10.17,2.31,9.32,7.59,17.52,14.5,24.07,31.34,6.8,65.09,1.06,65.09,1.06Z"/>
                    <path class="cls-33" d="M285.87,581.37c-5.25-7.2-14.59-8.96-22.38-4.96-8.94,4.6-13.07,14.01-14.83,23.42-1.13,6.01-1.43,12.14-2.29,18.19-.54,3.8-1.26,7.57-2.12,11.31-.68,2.94-1.68,5.92-1.75,8.94-.01.55.81.92,1.17.45,2.98-3.94,4.15-9.62,5.33-14.34,1.17-4.67,2.04-9.39,2.7-14.16,1.3-9.34,2.53-19.62,9.77-26.44,6.07-5.72,16.04-6.8,20.77,1.22,2.05,3.47,1.97,7.8.1,11.33-.98,1.86-2.46,3.51-4.31,4.53-1.96,1.08-6.69,1.04-5.08-2.59.62-1.38-1.14-3.23-2.54-2.38-3.88,2.37-3.7,7.29-.19,10.02,3.79,2.94,9.22,1.21,12.56-1.54,6.76-5.57,8.25-15.9,3.07-23Z"/>
                  </g>
                  <path class="cls-11" d="M125.97,781.05s-31.16-9.41-3.01-50.35c28.15-40.94,81.48-88.37,110.39-89.11,28.91-.74,29.79,32.55,29.79,32.55l-137.17,106.91Z"/>
                  <g>
                    <g>
                      <path class="cls-36" d="M485.13,843.23s21.23-30.89,9.83-58.38c-11.4-27.49-36.82-19.18-36.82-19.18,0,0,19.76-35.66-2.23-59.85-24.36-26.8-151.65-119.24-274.52-6.12-122.87,113.12-67.19,249.11-8.24,284.68,58.94,35.57,141.41,3.85,141.41,3.85l170.57-145.01Z"/>
                      <path class="cls-33" d="M485.13,843.23s21.23-30.89,9.83-58.38c-11.4-27.49-36.82-19.18-36.82-19.18,0,0,.57-1.04,1.4-2.84-1.2,1.2-2.43,2.36-3.7,3.48,2.14-9.98,2.74-20.36-.28-30.22-3.01-9.81-10.16-18.5-19.7-22.54-9.92-4.19-20.47-1.75-28.73,4.81-9.46,7.5-14.43,18.87-19.49,29.49-9.64,20.24-24.27,36.27-43.31,48.11-9.34,5.81-19.42,10.46-29.78,14.14-10.08,3.59-20.44,5.52-30.75,8.2-9.13,2.37-18.79,6.34-23.1,15.37-4.96,10.4-1.32,22.18,4.19,31.53,6.37,10.82,14.98,20.18,19.5,32.07,4,10.52,4.24,22.94-3.03,32.16-7.4,9.39-19.27,9.2-29.11,3.85-10.61-5.78-17.35-15.98-24.92-25.01-6.71-8-14.36-15.39-24.7-18.17-8.42-2.26-18.48-1.63-25.04,4.73-6.9,6.69-6.26,17.13-12.13,24.26-4.05,4.92-10.84,4.78-16.18,2.16-5.55-2.73-9.48-7.92-13.08-12.77-10.36-13.98-21.4-29.16-27.83-45.78,3.65,56.4,33.76,102.96,64.79,121.69,58.94,35.57,141.41,3.85,141.41,3.85l170.57-145.01Z"/>
                    </g>
                    <path class="cls-33" d="M161.11,872.43c-4.1,1.37-7.44,3.58-12,3.25-3.48-.25-6.96-1.47-9.77-3.54-6.74-4.98-9.3-13.91-10.32-21.83-1.22-9.44-.84-19.11.66-28.49.78-4.86,1.93-9.62,3.34-14.33.62-2.09,1.23-4.19,1.95-6.25.65-1.86,1.52-3.4,1.29-5.36-.04-.35-.52-.63-.84-.43-2.43,1.56-3.47,5.04-4.64,7.59-1.11,2.44-2.03,4.94-2.87,7.49-1.76,5.39-3.11,10.92-3.92,16.54-1.51,10.59-1.81,22,1.02,32.4,2.42,8.91,7.81,17.35,16.78,20.68,6.3,2.34,18.69,2.5,20.99-5.78.26-.95-.54-2.32-1.69-1.93Z"/>
                    <path class="cls-33" d="M167.21,865.44c-1.61-.91-2.09-.64-3.67-.81-.72-.08-1.43-.23-2.11-.49-1.16-.43-2.27-1.09-3.19-1.91-1.43-1.27-2.37-3.11-2.87-4.94-.33-1.22-.54-2.57-.43-3.82.06-.71-.97-1.25-1.31-.46-.38.89-.78,1.87-.88,2.83-.13,1.16-.12,2.34.09,3.49.33,1.79,1.19,3.53,2.31,4.96,1.5,1.91,3.55,3.3,5.86,4.01.96.3,1.96.54,2.96.6,1.28.07,2.71.12,3.46-1.12.33-.54.49-1.93-.22-2.34Z"/>
                    <path class="cls-33" d="M379.21,695.17c-4.14-9.35-13.52-16.33-23.92-16.28-5.49.02-10.8,2.33-14.76,6.1-3.74,3.56-7.08,9.01-5.38,14.29.37,1.16,2.25,1.64,2.82.35,1.88-4.24,2.97-8.41,6.64-11.55,3.34-2.87,7.65-4.47,12.08-4.16,9.61.67,17.2,8.48,19.46,17.52,5.3,21.17-13.14,39.29-29.82,48.8-10.34,5.89-22.13,10.58-33.7,13.35-.96.23-.77,1.74.23,1.54,6.4-1.27,12.68-2.36,18.9-4.39,5.77-1.88,11.33-4.21,16.67-7.1,10.78-5.85,21-13.9,27.37-24.55,6-10.04,8.29-22.92,3.43-33.91Z"/>
                  </g>
                </g>
                <path class="cls-39" d="M390.72,1006.24s5.09,34.1-50.22,29.6c-55.31-4.5-87.98-15.88-78.85-65.78l129.07,36.19Z"/>
                <g>
                  <path class="cls-27" d="M397.92,728.55c3.21-3.8,8.79-4.55,12.76-1.56,7.47,5.63,16.33,16.57,19.59,28.49,5.35,19.53,19.41,38.51,32.77,47.72,13.36,9.21,48.88,29.13,42.32,78.33-6.56,49.2-29.67,97.71-58.75,116.22-29.07,18.52-143.28,48.22-198.09-39.34,0,0-46.3,14.42-54.48-24.09-8.18-38.52,33.11-38.63,55.06-9.17,0,0,24.98-2.99,18.43-14.59-6.55-11.61-49.17-57.17-32.07-94.04,20.73-44.69,103.74-18.4,162.45-87.96Z"/>
                  <path class="cls-21" d="M432.85,865.71c-.82,0-1.64-.39-2.15-1.11-.84-1.18-.56-2.82.63-3.66,3.12-2.2,4.8-5.56,5-9.98.1-2.15-1.37-4.13-3.42-4.6-23.77-5.46-25.86-22.33-25.93-23.04-.16-1.44.89-2.74,2.33-2.89,1.48-.16,2.73.88,2.89,2.32.08.61,1.96,13.92,21.89,18.5,4.56,1.05,7.72,5.24,7.5,9.96-.27,6.03-2.77,10.88-7.22,14.03-.46.32-.99.48-1.51.48Z"/>
                  <path class="cls-21" d="M231.74,947.75c-1.41,0-2.57-1.12-2.62-2.53-.05-1.45,1.08-2.67,2.53-2.72l11.47-.41c-7.1-9.56-20.88-8.74-21.53-8.7-1.48.09-2.7-.99-2.8-2.44-.1-1.44.98-2.7,2.43-2.8.87-.06,21.27-1.34,28.77,15.33.36.8.3,1.72-.16,2.46-.46.74-1.26,1.21-2.14,1.24l-15.84.56s-.06,0-.09,0Z"/>
                  <path class="cls-36" d="M351.43,795.3c-8.56-6.1-20.42-3.58-27.55,3.46-7.73,7.64-10.74,20.05-9.13,30.64.71,4.63,3.55,9.67,9.01,8.65,2.86-.54,5.56-2.45,8.01-4.09,2.88-1.3,5.72-2.7,8.47-4.24,4.63-2.6,9.51-5.32,13.35-9.05,7.46-7.24,6.27-19.36-2.16-25.37Z"/>
                  <path class="cls-36" d="M442.21,767.89c-2.95-3.39-6.99-5.54-11.39-6.11-1.85-.47-3.78-.62-5.4-.54-4.76.26-9.19,2.59-12.09,6.37-2.91,3.79-4.29,8.67-3.77,13.42.5,4.53,3.12,9.19,7.74,10.46,2.61.72,5.32.25,7.9-.36,2.98-.71,5.94-1.48,8.9-2.24,4.84-1.23,11.78-1.69,12.8-7.71.79-4.72-1.66-9.81-4.69-13.29Z"/>
                  <path class="cls-22" d="M365.27,845.07c-.34-.6-3.57-7.01-5.91-8.46-1.29-.8-2.69-.98-4.01-.73-2.67.13-5,2.6-5.69,5.2-.79,2.98-.17,6.31,1.24,9.01,1.31,2.53,3.6,5.06,6.37,6.07.15.06.28.14.43.2,1.87.68,4.01.46,5.69-.48,1.29-.46,2.47-1.48,3.02-2.53,1.46-2.79.25-5.76-1.16-8.28Z"/>
                  <path class="cls-22" d="M442.76,802.86c-1.34-1.67-3.03-3.09-5.18-3.49-2.31-.43-4.65.54-5.77,2.64-1.01,1.9-.79,4.29-.27,6.3.2.77.47,1.53.78,2.28.17.45.35.89.56,1.31,1.09,2.2,2.88,4.33,5.25,5.19,2.35.85,5.07.41,6.83-1.42,1.68-1.75,1.97-4.42,1.38-6.68-.6-2.29-2.11-4.31-3.57-6.13Z"/>
                  <g>
                    <path class="cls-16" d="M463.58,885.3c-2.74,12.66-12.05,18.85-33.32,22.54-29.35,5.1-42.99.51-49.37-7.32-9.7,3.11-18.97,14.41-6,36.42,16.11,27.35,50.71,26.26,71.56,10.88,20.85-15.37,25.67-34.01,27.03-46.69,0,0,.82-12.94-9.9-15.84Z"/>
                    <path class="cls-7" d="M431.54,915.33c21.26-3.69,29.3-17.36,32.04-30.02-3.71-1-8.78-.81-15.76,1.54-27.16,9.14-49.37,13.72-60.1,12.82-2.1-.17-4.48.11-6.83.86,6.37,7.83,21.29,19.9,50.64,14.8Z"/>
                  </g>
                </g>
              </g>
            </g>
          </g>
          <g>
            <path class="cls-29" d="M1807.53,226.88c-20.36,14.96-50.84,34.2-92.17,52.16-77.41,33.64-209.7,69.5-400.32,49.26-167-17.73-272.83-98.01-332.23-162.23-64.42-69.65-89.66-135.97-89.9-136.63-.44-1.19-1.77-1.8-2.97-1.35-1.19.45-1.8,1.78-1.35,2.97.25.67,25.73,67.71,90.7,138,56.67,61.32,155.26,137.13,308.19,160.35,8.85,1.34,17.86,2.51,27.07,3.49,191.78,20.36,324.97-15.81,402.93-49.73,42.64-18.56,73.89-38.51,94.46-53.8,2.42-1.78.16-6.1-4.4-2.47Z"/>
            <path class="cls-15" d="M1681.38,297.92c10.58,21.14,23.37,41.13,38.18,59.55,6.52,8.12,13.43,15.94,20.69,23.42,6.82,7.03,13.85,14.65,22.15,19.94,6.9,4.4,15.86,7.67,23.71,3.7,8.55-4.33,10.64-14.3,11.05-23.05,1.08-23.41.29-47.07-.88-70.46-.61-12.09-1.31-24.21-2.48-36.25-.58-5.96-1.2-11.91-1.89-17.86-.68-5.91-1.19-11.89-2.73-17.64-.35-1.34-2.52-1.43-2.57.12-.02.73,0,1.46,0,2.19-.26-.07-.55,0-.74.27-2.79,3.94-4.58,8.53-6.96,12.74-2.2,3.9-4.68,7.64-7.45,11.16-9.35,11.86-21.79,21.25-36.03,26.36-7.68,2.76-15.78,4.32-23.93,4.64-8.16.33-15.92-.92-23.88-2.54-.11-.02-.21-.02-.32-.04-2.15-3.63-7.9-.18-5.93,3.76Z"/>
            <path class="cls-11" d="M1535.51,335.01c4.31,12.08,10.08,23.74,15.97,35.12,5.83,11.26,12.15,22.25,19.01,32.92,6.04,9.4,12.46,18.55,19.28,27.39,6.51,8.44,13.81,16.66,23.17,21.99,8.45,4.81,18.76,6.35,27.87,2.37,7.93-3.46,13.65-10.05,17.9-17.42,4.73-8.2,7.48-17.34,9.79-26.47,3.02-11.98,5.43-24.1,7.17-36.32,1.74-12.28,2.67-24.68,2.98-37.08.15-5.96.07-11.91-.21-17.86-.27-5.91-.12-12.27-2.47-17.76.03-.05.07-.09.09-.14.6-1.02-.8-1.92-1.65-1.37-4.76,3.1-8.89,7.06-13.51,10.38-4.13,2.96-8.42,5.72-12.79,8.32-31.22,18.51-70.78,23.92-105.74,14.03-.07-.16-.14-.32-.22-.49-1.65-3.66-8.01-1.4-6.65,2.41Z"/>
            <path class="cls-15" d="M1382.25,341.89c1.55,25.84,6.89,51.46,15.87,75.72,3.88,10.49,8.38,20.76,13.54,30.69,5.16,9.94,10.73,20.18,18.57,28.28,7.59,7.85,17.57,13.37,28.79,11.82,9.12-1.26,16.8-7.32,22.48-14.26,6.96-8.49,11.79-18.44,16.48-28.3,5.53-11.63,10.45-23.58,14.84-35.68,8.92-24.6,16.28-50.74,18.57-76.85.16-1.75-2.63-2.61-3.11-.79-.11.42-.21.85-.32,1.27-.15.03-.3.07-.46.16-10.07,5.61-19.57,11.64-30.39,15.81-35.48,13.7-75.92,8.92-107.04-12.95-2-1.41-4.07-.41-5.03,1.23-1.57.44-2.92,1.77-2.8,3.86Z"/>
            <path class="cls-11" d="M1227.52,317.31c1.78,27.69,4.93,55.46,10.12,82.72,3.93,20.62,9.62,41.57,21.39,59.21,5.68,8.51,12.89,17.66,22.64,21.6,11.18,4.52,20.82-1.9,28.41-9.71,16.58-17.06,28.86-37.84,38.14-59.65,4.99-11.74,9.38-23.81,12.89-36.07,3.32-11.61,6.96-23.6,8.74-35.6.16-.1.33-.2.49-.3.87-.6.61-1.83-.11-2.42.03-.21.06-.42.09-.63.18-1.55-1.93-1.83-2.51-.56-.13.29-.23.58-.36.87-4.64.21-9.51,1.7-13.96,2.55-5.41,1.02-10.84,1.94-16.28,2.73-35.76,5.17-75.02.03-102.33-25.55-.28-.26-.56-.44-.85-.59-.52-3.99-6.77-2.73-6.5,1.41Z"/>
            <path class="cls-15" d="M1086.65,346.52c-.3,11.55.11,23.09,1.31,34.58,1.1,10.51,2.22,21.79,6.07,31.71,3.34,8.6,9.95,16.13,19.81,16.38,10.28.26,19.17-6.2,26.93-12.21,17.24-13.33,33.55-28.06,47.44-44.9,6.97-8.46,13.4-17.31,19-26.74,5.9-9.91,11.63-20.61,14.43-31.86.32-1.27-.76-1.94-1.79-1.84-.18-.03-.37-.03-.56.03-1.73.49-3.28.61-5.02,1.19-1.04.35-2.09.67-3.14.98-3.21.96-6.41,1.87-9.69,2.53-4.38.87-8.8,1.34-13.25,1.59-33.99,1.91-65.81-17.73-80.09-48.51-.73-1.57-2.15-2.07-3.47-1.86-1.81-1.55-5.6-1.08-6.44,2.08-6.69,25.11-10.87,50.86-11.54,76.85Z"/>
            <path class="cls-13" d="M957.25,261.23c-4.52,22.12-8.71,46.02-2.77,68.24,2.38,8.93,6.96,18.28,15.58,22.58,9.57,4.77,19.73-.04,28.48-4.33,38.27-18.75,73.75-46.22,99.29-80.54,1.43-1.93-1.13-4.38-2.99-3.53-10.16-2.14-20.48-3.88-30.38-7.12-35.45-11.61-63.49-38.89-76.4-73.86-.77-2.09-2.63-2.49-4.21-1.88-.87-.54-2.01-.58-2.8.36-1.31,1.56-2.39,2.85-3.08,4.77-.58,1.62-1.04,3.3-1.55,4.94-1.03,3.29-2.06,6.59-3.08,9.88-2.03,6.59-4.03,13.2-5.93,19.83-3.86,13.43-7.37,26.96-10.17,40.65Z"/>
            <path class="cls-11" d="M839.94,204.98c-1.6,9.1-3.85,20.49,1.32,28.87,5.03,8.14,15.36,9.91,24.1,8.01,9.9-2.15,19.52-6.73,28.63-11.06,9.67-4.59,19.1-9.69,28.34-15.11,9.4-5.53,18.62-11.37,27.63-17.52,4.6-3.14,9.25-6.25,13.73-9.56,4.89-3.6,10.02-7.02,14.31-11.33.45-.45.54-1.07.39-1.64.89-.47.89-2.04-.09-2.53-5.45-2.72-11.19-4.8-16.63-7.59-4.93-2.53-9.73-5.29-14.24-8.52-8.35-5.96-15.92-13.13-21.98-21.43-11.2-15.32-17.72-33.73-18.67-52.68.21-.77.13-1.52-.17-2.18-.73-3.87-6.76-3.26-7.24.71-13.53,20.25-26.94,40.74-38.02,62.46-9.82,19.26-17.68,39.73-21.43,61.08Z"/>
          </g>
          <g>
            <ellipse class="cls-43" cx="566.67" cy="328.02" rx="230.84" ry="230.06"/>
            <ellipse class="cls-7" cx="566.24" cy="328.02" rx="195.69" ry="195.04"/>
            <g>
              <ellipse class="cls-23" cx="567.8" cy="174.14" rx="26.29" ry="26.2"/>
              <ellipse class="cls-23" cx="567.8" cy="486.76" rx="26.29" ry="26.2"/>
            </g>
            <g>
              <path class="cls-11" d="M466.62,208.18c-7.26-12.53-2.95-28.56,9.62-35.79s28.65-2.94,35.91,9.59c7.26,12.53,2.95,28.56-9.62,35.79-12.57,7.24-28.65,2.94-35.91-9.59Z"/>
              <path class="cls-11" d="M623.45,478.92c-7.26-12.53-2.95-28.56,9.62-35.79,12.57-7.24,28.65-2.94,35.91,9.59,7.26,12.53,2.95,28.56-9.62,35.79-12.58,7.24-28.65,2.94-35.91-9.59Z"/>
            </g>
            <g>
              <path class="cls-11" d="M418.84,274.99c-12.58-7.24-16.88-23.26-9.62-35.79,7.26-12.53,23.34-16.83,35.91-9.59,12.58,7.24,16.88,23.26,9.62,35.79-7.26,12.53-23.34,16.83-35.92,9.59Z"/>
              <path class="cls-11" d="M690.48,431.29c-12.58-7.24-16.88-23.26-9.62-35.79,7.26-12.53,23.34-16.83,35.91-9.59,12.58,7.24,16.88,23.26,9.62,35.79-7.26,12.53-23.34,16.83-35.91,9.59Z"/>
            </g>
            <g>
              <ellipse class="cls-23" cx="410.97" cy="330.45" rx="26.29" ry="26.2"/>
              <ellipse class="cls-23" cx="724.64" cy="330.45" rx="26.29" ry="26.2"/>
            </g>
            <g>
              <path class="cls-11" d="M445.13,431.29c-12.58,7.24-28.65,2.94-35.91-9.59-7.26-12.53-2.95-28.56,9.62-35.79,12.58-7.24,28.65-2.94,35.92,9.59,7.26,12.53,2.95,28.56-9.62,35.79Z"/>
              <path class="cls-11" d="M716.77,274.99c-12.58,7.24-28.65,2.94-35.91-9.59-7.26-12.53-2.95-28.56,9.62-35.79,12.58-7.24,28.65-2.94,35.91,9.59,7.26,12.53,2.95,28.56-9.62,35.79Z"/>
            </g>
            <g>
              <path class="cls-11" d="M512.16,478.92c-7.26,12.53-23.34,16.83-35.91,9.59-12.58-7.24-16.88-23.26-9.62-35.79,7.26-12.53,23.34-16.83,35.91-9.59,12.58,7.24,16.88,23.26,9.62,35.79Z"/>
              <path class="cls-11" d="M668.99,208.18c-7.26,12.53-23.34,16.83-35.91,9.59-12.58-7.24-16.88-23.26-9.62-35.79,7.26-12.53,23.34-16.83,35.91-9.59s16.88,23.26,9.62,35.79Z"/>
            </g>
            <path class="cls-41" d="M582.26,267.47c-2.54-10.11-7.41-19.46-12.48-28.5-1.47-2.63-5.21-2.14-6.6.22-8.17,13.84-13.14,29.59-13.28,45.71-.1,12.59,1.36,26.58,7.28,38.02.3,1.28.65,2.54,1.18,3.72,1.49,3.32,4.43,5.83,8.23,5.75,4.58-.1,7.37-4.09,8.56-8.05,2.67-8.89,4.25-18.24,6.35-27.29,2.32-10,3.29-19.54.77-29.59Z"/>
            <path class="cls-41" d="M559.43,343.42c-.96-.56-2.15-.63-3,.36-29.2,33.87-51.87,73.42-67.27,115.31-1.42,3.87,3.36,7.77,6.4,4.21,29.25-34.15,53.02-72.63,69.96-114.25,1.53-3.76-2.76-8.36-6.09-5.64Z"/>
            <path class="cls-23" d="M580.93,323.47c-1.74-3.79-5.13-6.32-9.13-7.35-4.02-1.04-8.58.67-11.05,3.96-.32.43-.58.89-.86,1.33-1.08.69-2.09,1.46-2.98,2.41-2.65,2.86-4.41,6.76-4.36,10.7.1,7.2,5.23,13.84,12.56,14.82,3.84.51,7.86-.29,10.99-2.65,3.75-2.82,5.47-7.04,6.19-11.53.64-3.99.33-8-1.37-11.69ZM568.26,332.14c-.1.27-.19.53-.31.8-.21.48-.44.96-.7,1.41,0,0,0,0,0,0,0,0,0-.01,0-.01-.04-.22-.06-.43-.1-.65-.02-.14-.04-.22-.05-.27.02-.23.06-.48.08-.61,0-.11,0-.24.02-.38.02-.05.04-.11.07-.2.04-.13.15-.64.27-1.04.03-.05.07-.11.14-.23.11-.18.2-.36.31-.54.03-.03.07-.06.1-.09.03.04.07.08.1.13.16.23.11.14-.08-.15,0,0,0,0,.02-.01.13.14.27.43.4.77-.04.21-.08.42-.13.6-.02.1-.09.34-.13.47Z"/>
          </g>
        </g>
      </g>
    </g>
  </g>
</svg>